<?xml version="1.0" encoding="iso-8859-1"?>
<!-- Uploaded to: SVG Repo, www.svgrepo.com, Generator: SVG Repo Mixer Tools -->
<svg fill="#FFFFFF" height="800px" width="800px" version="1.1" id="Capa_1" xmlns="http://www.w3.org/2000/svg" xmlns:xlink="http://www.w3.org/1999/xlink" 
	 viewBox="0 0 57.001 57.001" xml:space="preserve">
<g>
	<g>
		<path d="M35.361,5.677l2.497-4.162c0.284-0.474,0.131-1.088-0.343-1.372c-0.475-0.285-1.088-0.132-1.372,0.343l-2.635,4.392
			c-1.569-0.558-3.249-0.878-5.007-0.878s-3.438,0.32-5.007,0.878l-2.635-4.392c-0.284-0.475-0.898-0.627-1.372-0.343
			s-0.627,0.898-0.343,1.372l2.497,4.162c-4.827,2.495-8.14,7.525-8.14,13.324c0,0.553,0.448,1,1,1h28c0.552,0,1-0.447,1-1
			C43.5,13.203,40.188,8.173,35.361,5.677z M15.539,18.001c0.512-6.703,6.13-12,12.962-12s12.45,5.297,12.962,12H15.539z"/>
		<path d="M35.478,11.364H34.16c-0.364,0-0.659,0.295-0.659,0.659v1.318c0,0.364,0.295,0.659,0.659,0.659h1.319
			c0.364,0,0.659-0.295,0.659-0.659v-1.318C36.138,11.659,35.842,11.364,35.478,11.364z"/>
		<path d="M22.841,11.364h-1.319c-0.364,0-0.659,0.295-0.659,0.659v1.318c0,0.364,0.295,0.659,0.659,0.659h1.319
			c0.364,0,0.659-0.295,0.659-0.659v-1.318C23.5,11.659,23.205,11.364,22.841,11.364z"/>
		<path d="M42.5,21.001h-28c-0.552,0-1,0.447-1,1v20.171c0,2.663,2.169,4.829,4.834,4.829H19.5v6.006c0,2.202,1.794,3.994,4,3.994
			s4-1.792,4-3.994v-6.006h2v6.006c0,2.202,1.794,3.994,4,3.994s4-1.792,4-3.994v-6.006h1.166c2.666,0,4.834-2.166,4.834-4.829
			V22.001C43.5,21.448,43.053,21.001,42.5,21.001z M41.5,42.172c0,1.56-1.271,2.829-2.834,2.829H36.5c-0.552,0-1,0.447-1,1v7.006
			c0,1.1-0.897,1.994-2,1.994s-2-0.895-2-1.994v-7.006c0-0.553-0.448-1-1-1h-4c-0.552,0-1,0.447-1,1v7.006
			c0,1.1-0.897,1.994-2,1.994s-2-0.895-2-1.994v-7.006c0-0.553-0.448-1-1-1h-2.165c-1.563,0-2.835-1.27-2.835-2.829V23.001h26
			V42.172z"/>
		<path d="M48,21.001c-1.93,0-3.5,1.572-3.5,3.504v13.992c0,1.932,1.57,3.504,3.5,3.504s3.5-1.572,3.5-3.504V24.505
			C51.5,22.573,49.93,21.001,48,21.001z M49.5,38.497c0,0.829-0.673,1.504-1.5,1.504s-1.5-0.675-1.5-1.504V24.505
			c0-0.829,0.673-1.504,1.5-1.504s1.5,0.675,1.5,1.504V38.497z"/>
		<path d="M9,21.001c-1.93,0-3.5,1.572-3.5,3.504v13.992c0,1.932,1.57,3.504,3.5,3.504s3.5-1.572,3.5-3.504V24.505
			C12.5,22.573,10.93,21.001,9,21.001z M10.5,38.497c0,0.829-0.673,1.504-1.5,1.504s-1.5-0.675-1.5-1.504V24.505
			c0-0.829,0.673-1.504,1.5-1.504s1.5,0.675,1.5,1.504V38.497z"/>
	</g>
</g>
</svg>