<svg width="51.000000" height="51.000000" viewBox="0 0 51 51" fill="none" xmlns="http://www.w3.org/2000/svg" xmlns:xlink="http://www.w3.org/1999/xlink">
	<desc>
			Created with Pixso.
	</desc>
	<defs>
		<clipPath id="clip2_196">
			<rect id="Download" width="51.000000" height="51.000000" fill="white" fill-opacity="0"/>
		</clipPath>
	</defs>
	<g clip-path="url(#clip2_196)">
		<path id="path" d="M4.39 25.52L4.37 25.5C4.37 24.38 5.25 23.5 6.37 23.5C7.49 23.5 8.37 24.38 8.37 25.5L8.35 25.52L4.39 25.52ZM42.64 25.52L42.62 25.5C42.62 24.37 43.5 23.5 44.62 23.5C45.74 23.5 46.62 24.37 46.62 25.5L46.6 25.52L42.64 25.52Z" fill="#000000" fill-opacity="0" fill-rule="nonzero"/>
		<path id="path" d="M6.37 25.5L6.37 44.62L44.62 44.62L44.62 25.5" stroke="#FFFFFF" stroke-opacity="1.000000" stroke-width="4.000000" stroke-linejoin="round" stroke-linecap="round"/>
		<path id="path" d="M33.64 23.05L33.64 23.02C34.44 22.23 35.68 22.23 36.47 23.02C37.26 23.81 37.26 25.05 36.47 25.85L36.44 25.85L33.64 23.05ZM14.55 25.85L14.52 25.85C13.73 25.05 13.73 23.81 14.52 23.02C15.31 22.23 16.55 22.23 17.35 23.02L17.35 23.05L14.55 25.85Z" fill="#000000" fill-opacity="0" fill-rule="nonzero"/>
		<path id="path" d="M35.06 24.43L25.5 34L15.93 24.43" stroke="#FFFFFF" stroke-opacity="1.000000" stroke-width="4.000000" stroke-linejoin="round" stroke-linecap="round"/>
		<path id="path" d="M23.51 6.39L23.49 6.37C23.49 5.25 24.37 4.37 25.49 4.37C26.61 4.37 27.49 5.25 27.49 6.37L27.47 6.39L23.51 6.39ZM27.47 33.98L27.49 34C27.49 35.12 26.61 36 25.49 36C24.37 36 23.49 35.12 23.49 34L23.51 33.98L27.47 33.98Z" fill="#000000" fill-opacity="0" fill-rule="nonzero"/>
		<path id="path" d="M25.49 6.37L25.49 34" stroke="#FFFFFF" stroke-opacity="1.000000" stroke-width="4.000000" stroke-linejoin="round" stroke-linecap="round"/>
	</g>
</svg>
