<?xml version="1.0" encoding="iso-8859-1"?>
<!-- Uploaded to: SVG Repo, www.svgrepo.com, Generator: SVG Repo Mixer Tools -->
<!DOCTYPE svg PUBLIC "-//W3C//DTD SVG 1.1//EN" "http://www.w3.org/Graphics/SVG/1.1/DTD/svg11.dtd">
<svg fill="#FFFFFF" height="800px" width="800px" version="1.1" id="Capa_1" xmlns="http://www.w3.org/2000/svg" xmlns:xlink="http://www.w3.org/1999/xlink" 
	 viewBox="0 0 351.318 351.318" xml:space="preserve">
<path d="M315.956,217.696h-25.435V101.62c0-3.979-1.581-7.794-4.394-10.606l-86.62-86.62C196.695,1.58,192.879,0,188.901,0H44.498
	c-8.284,0-15,6.716-15,15v321.318c0,8.284,6.716,15,15,15h231.023c8.284,0,15-6.716,15-15v-36.915h25.435
	c3.239,0,5.864-2.625,5.864-5.863v-69.98C321.82,220.322,319.195,217.696,315.956,217.696z M260.522,321.318H59.498V30H180.84
	v64.837c0,8.284,6.716,15,15,15h64.682v107.859H147.723c-3.238,0-5.863,2.626-5.863,5.864v69.98c0,3.238,2.625,5.863,5.863,5.863
	h112.799V321.318z M293.84,285.8h-37.423h-0.159h-9.898l-15.303-21.18l-15.242,21.18h-8.392h-1.655H169.84v-54.5h36.628v8.186
	h-28.443v14.255h25.307v8.186h-25.307v15.688h29.397v5.887l18.608-25.809L207.076,231.3h10.033l13.947,19.404l14.008-19.404h10.044
	l-19.033,26.393l20.182,27.887V231.3h36.629v8.186h-28.443v14.255h25.307v8.186h-25.307v15.688h29.397V285.8z"/>
</svg>