<?xml version="1.0" encoding="UTF-8" standalone="no"?>
<!-- Created with Inkscape (http://www.inkscape.org/) -->

<svg
   version="1.1"
   viewBox="0 0 1200 400"
   id="svg2"
   xml:space="preserve"
   inkscape:version="0.91 r13725"
   sodipodi:docname="DDraceNetwork_Logo.svg"
   inkscape:export-filename="DDraceNetwork_Logo.svg"
   inkscape:export-xdpi="96"
   inkscape:export-ydpi="96"
   width="1200"
   height="400"
   xmlns:inkscape="http://www.inkscape.org/namespaces/inkscape"
   xmlns:sodipodi="http://sodipodi.sourceforge.net/DTD/sodipodi-0.dtd"
   xmlns="http://www.w3.org/2000/svg"
   xmlns:svg="http://www.w3.org/2000/svg"
   xmlns:rdf="http://www.w3.org/1999/02/22-rdf-syntax-ns#"
   xmlns:cc="http://creativecommons.org/ns#"
   xmlns:dc="http://purl.org/dc/elements/1.1/"><sodipodi:namedview
     pagecolor="#ffffff"
     bordercolor="#666666"
     borderopacity="1"
     objecttolerance="10"
     gridtolerance="10"
     guidetolerance="10"
     inkscape:pageopacity="0"
     inkscape:pageshadow="2"
     inkscape:window-width="943"
     inkscape:window-height="1005"
     id="namedview5291"
     showgrid="true"
     inkscape:zoom="1.4142136"
     inkscape:cx="-686.95424"
     inkscape:cy="572.04939"
     inkscape:window-x="2885"
     inkscape:window-y="63"
     inkscape:window-maximized="1"
     inkscape:current-layer="svg2"
     inkscape:showpageshadow="2"
     inkscape:pagecheckerboard="0"
     inkscape:deskcolor="#d1d1d1"><inkscape:grid
       id="grid85"
       units="px"
       originx="0"
       originy="0"
       spacingx="2"
       spacingy="2"
       empcolor="#0099e5"
       empopacity="0.30196078"
       color="#0099e5"
       opacity="0.14901961"
       empspacing="5"
       enabled="true"
       visible="true" /><inkscape:page
       x="0"
       y="0"
       width="1200"
       height="400"
       id="page2"
       margin="0"
       bleed="0" /></sodipodi:namedview><metadata
     id="metadata8"><rdf:RDF><cc:Work
         rdf:about=""><dc:format>image/svg+xml</dc:format><dc:type
           rdf:resource="http://purl.org/dc/dcmitype/StillImage" /></cc:Work></rdf:RDF></metadata><defs
     id="defs6"><rect
       x="-299.81329"
       y="223.44574"
       width="261.01935"
       height="84.137093"
       id="rect197" /></defs><g
     id="g11473"
     transform="matrix(3.9393065,0,0,3.9393065,-6838.7956,-2574.3671)"><path
       id="path3298-6-5-2-4-0-8-3-1"
       d="m 1838.789,683.75516 c 0,1.51405 -4.9038,2.74138 -10.953,2.74138 -6.049,0 -10.9528,-1.22733 -10.9528,-2.74138 0,-1.51398 4.9038,-2.74135 10.9528,-2.74135 6.0492,0 10.953,1.22737 10.953,2.74135 z"
       style="color:#000000;display:inline;overflow:visible;visibility:visible;fill:none;stroke:#6ac1ff;stroke-width:1.20426;stroke-linecap:round;stroke-linejoin:round;stroke-miterlimit:4;stroke-dashoffset:0;stroke-opacity:1;marker:none;enable-background:accumulate"
       inkscape:connector-curvature="0" /><path
       style="color:#000000;display:inline;overflow:visible;visibility:visible;fill:none;stroke:#4a9ce6;stroke-width:1.20426;stroke-linecap:round;stroke-linejoin:round;stroke-miterlimit:4;stroke-dasharray:none;stroke-dashoffset:0;stroke-opacity:1;marker:none;enable-background:accumulate"
       d="m 1827.8553,679.79797 c -7.9551,0 -14.4055,1.89219 -14.4055,4.22104 0,2.32881 6.4504,4.20935 14.4055,4.20935 7.9551,0 14.4053,-1.88054 14.4053,-4.20935 0,-2.32885 -6.4502,-4.22104 -14.4053,-4.22104 z"
       id="path3300-9-8-3-3-9-8-6-0"
       inkscape:connector-curvature="0"
       sodipodi:nodetypes="sssss" /><g
       id="g8744-1-2-0-2-5-6-9-5"
       transform="matrix(0.48170278,0,0,0.48170278,1228.1156,205.02763)"><path
         d="m 1227.6825,990.32006 c 0,-4.10674 4.9224,-6.13008 9.5679,-6.05721 4.6456,0.0732 10.7334,2.74159 10.7334,6.48293 0,3.74044 -6.3572,3.56613 -10.7334,3.56613 -2.2043,0 -6.2112,0.27933 -7.9355,-0.69884 -1.7003,-0.96573 -1.7055,-3.29301 -1.6324,-3.29301 z"
         id="path468-4-1-4-0-0-2-9-7"
         style="fill:#000000;fill-opacity:1;fill-rule:nonzero;stroke:#000000;stroke-width:2.20433;stroke-linecap:butt;stroke-linejoin:round;stroke-miterlimit:4;stroke-dasharray:none;stroke-opacity:1"
         inkscape:connector-curvature="0" /><path
         d="m 1227.6825,990.32006 c 0,-4.10674 4.9224,-6.13008 9.5679,-6.05721 4.6456,0.0732 10.7334,2.74159 10.7334,6.48293 0,3.74044 -6.3572,3.56613 -10.7334,3.56613 -2.2043,0 -6.2112,0.27933 -7.9355,-0.69884 -1.7003,-0.96573 -1.7055,-3.29301 -1.6324,-3.29301 z"
         id="path472-7-0-6-5-5-0-6-7"
         style="fill:#a67e33;fill-opacity:1;fill-rule:nonzero;stroke:#000000;stroke-width:1.76346;stroke-linecap:butt;stroke-linejoin:round;stroke-miterlimit:4;stroke-dasharray:none;stroke-opacity:1"
         inkscape:connector-curvature="0" /><path
         d="m 1262.264,973.83207 c 0,10.16936 -8.2434,18.41259 -18.4125,18.41259 -10.1695,0 -18.4129,-8.24323 -18.4129,-18.41259 0,-10.1694 8.2434,-18.41293 18.4129,-18.41293 10.1691,0 18.4125,8.24353 18.4125,18.41293 z"
         id="path524-8-2-0-1-2-1-4-0"
         style="fill:#000000;fill-opacity:1;fill-rule:evenodd;stroke:#000000;stroke-width:2.9503;stroke-linecap:butt;stroke-linejoin:round;stroke-miterlimit:4;stroke-dasharray:none;stroke-opacity:1"
         inkscape:connector-curvature="0" /><path
         d="m 1262.264,973.83207 c 0,10.16936 -8.2434,18.41259 -18.4125,18.41259 -10.1695,0 -18.4129,-8.24323 -18.4129,-18.41259 0,-10.1694 8.2434,-18.41293 18.4129,-18.41293 10.1691,0 18.4125,8.24353 18.4125,18.41293 z"
         id="path528-4-3-9-8-3-4-1-0"
         style="fill:#ffa500;fill-opacity:1;fill-rule:evenodd;stroke:#000000;stroke-width:1.31125;stroke-linecap:butt;stroke-linejoin:miter;stroke-miterlimit:4;stroke-dasharray:none;stroke-opacity:1"
         inkscape:connector-curvature="0" /><path
         inkscape:connector-curvature="0"
         style="opacity:0.3;fill:#d40000;fill-opacity:1;fill-rule:evenodd;stroke:none"
         id="path530-6-0-0-5-4-8-9-4"
         d="m 1259.611,965.67966 c 0.1067,0.81406 0.2052,1.63468 0.2052,2.47993 0,10.49872 -8.5125,19.03322 -19.0126,19.03322 -4.8301,0 -9.1847,-1.86446 -12.5391,-4.83508 3.0222,5.51853 8.8526,9.28056 15.5906,9.28056 9.8386,0 17.7845,-7.96528 17.7845,-17.80359 0,-2.95063 -0.7602,-5.70596 -2.0286,-8.15504 z" /><path
         d="m 1243.0216,990.32006 c 0,-4.10674 4.9225,-6.13008 9.5682,-6.05721 4.6454,0.0732 10.7335,2.74159 10.7335,6.48293 0,3.74044 -6.3573,3.56613 -10.7335,3.56613 -2.2042,0 -6.2112,0.27933 -7.9371,-0.69884 -1.7003,-0.96573 -1.7039,-3.29301 -1.6311,-3.29301 z"
         id="path538-1-6-1-6-2-6-1-8"
         style="fill:#000000;fill-opacity:1;fill-rule:nonzero;stroke:#000000;stroke-width:2.20433;stroke-linecap:butt;stroke-linejoin:round;stroke-miterlimit:4;stroke-dasharray:none;stroke-opacity:1"
         inkscape:connector-curvature="0" /><path
         d="m 1243.0216,990.32006 c 0,-4.10674 4.9215,-6.13008 9.5682,-6.05721 4.6454,0.0732 10.7335,2.74159 10.7335,6.48293 0,3.74044 -6.3573,3.56613 -10.7335,3.56613 -2.2042,0 -6.2112,0.27933 -7.9371,-0.69884 -1.7003,-0.96573 -1.7039,-3.29301 -1.6311,-3.29301 z"
         id="path542-8-1-7-3-6-0-5-3"
         style="fill:#a67e33;fill-opacity:1;fill-rule:nonzero;stroke:#000000;stroke-width:1.76346;stroke-linecap:butt;stroke-linejoin:round;stroke-miterlimit:4;stroke-dasharray:none;stroke-opacity:1"
         inkscape:connector-curvature="0" /><path
         sodipodi:nodetypes="sssss"
         inkscape:connector-curvature="0"
         style="color:#000000;display:inline;overflow:visible;visibility:visible;fill:#1a1a1a;fill-opacity:1;fill-rule:nonzero;stroke:none;stroke-width:4;marker:none;enable-background:accumulate"
         d="m 1247.8295,971.31102 c 0,3.19142 -1.3204,5.77859 -2.9492,5.77859 -1.6288,0 -2.9492,-2.58717 -2.9492,-5.77859 0,-3.19142 1.3204,-5.77858 2.9492,-5.77858 1.6288,0 2.9492,2.58716 2.9492,5.77858 z"
         id="path3308-6-4-3-3-2-2-4-5-2" /><path
         sodipodi:nodetypes="sscsscs"
         id="path3312-6-2-2-6-9-5-9-5-1"
         d="m 1244.8883,965.53107 c -1.6288,0 -2.9479,2.5831 -2.9479,5.77452 0,2.7504 0.9879,5.06094 2.3012,5.6474 -0.6631,-1.06351 -1.084,-2.67727 -1.084,-4.48523 0,-3.19142 1.319,-5.77452 2.9478,-5.77452 0.2251,0 0.436,0.0518 0.6467,0.14527 -0.5076,-0.81052 -1.1575,-1.30744 -1.8638,-1.30744 z"
         style="color:#000000;display:inline;overflow:visible;visibility:visible;fill:#000000;fill-opacity:1;fill-rule:nonzero;stroke:none;stroke-width:4;marker:none;enable-background:accumulate"
         inkscape:connector-curvature="0" /><path
         sodipodi:nodetypes="sssss"
         inkscape:connector-curvature="0"
         style="color:#000000;display:inline;overflow:visible;visibility:visible;fill:#1a1a1a;fill-opacity:1;fill-rule:nonzero;stroke:none;stroke-width:4;marker:none;enable-background:accumulate"
         d="m 1240.0892,971.30643 c 0,3.19142 -1.3204,5.77859 -2.9493,5.77859 -1.6288,0 -2.9492,-2.58717 -2.9492,-5.77859 0,-3.19143 1.3204,-5.77859 2.9492,-5.77859 1.6289,0 2.9493,2.58716 2.9493,5.77859 z"
         id="path3308-6-8-1-0-0-0-2-1-2-7" /><path
         sodipodi:nodetypes="sscsscs"
         id="path3312-6-9-0-8-5-7-4-4-9-6"
         d="m 1237.1479,965.52647 c -1.6288,0 -2.9479,2.58311 -2.9479,5.77453 0,2.75039 0.988,5.06094 2.3013,5.64741 -0.6632,-1.06353 -1.0841,-2.67729 -1.0841,-4.48524 0,-3.19143 1.319,-5.77453 2.9479,-5.77453 0.2251,0 0.436,0.0518 0.6466,0.14528 -0.5076,-0.81052 -1.1574,-1.30745 -1.8638,-1.30745 z"
         style="color:#000000;display:inline;overflow:visible;visibility:visible;fill:#000000;fill-opacity:1;fill-rule:nonzero;stroke:none;stroke-width:4;marker:none;enable-background:accumulate"
         inkscape:connector-curvature="0" /><path
         style="opacity:0.3;fill:#000000;fill-opacity:1;stroke:none"
         d="m 1259.8795,986.97487 c -0.1667,3.16667 -3.5833,6.20833 -10.625,6.875 h 10 l 3.75,-1.625 -0.125,-3 z"
         id="path8730-0-4-4-0-0-8-9-6"
         inkscape:connector-curvature="0"
         sodipodi:nodetypes="cccccc" /></g><path
       id="path3298-6-5-2-4-0-8-9"
       d="m 1792.8057,705.09237 c 0,2.70431 -8.7589,4.89651 -19.5636,4.89651 -10.8045,0 -19.5633,-2.1922 -19.5633,-4.89651 0,-2.70419 8.7588,-4.89645 19.5633,-4.89645 10.8047,0 19.5636,2.19226 19.5636,4.89645 z"
       style="color:#000000;display:inline;overflow:visible;visibility:visible;fill:none;stroke:#6ac1ff;stroke-width:2.15098;stroke-linecap:round;stroke-linejoin:round;stroke-miterlimit:4;stroke-dashoffset:0;stroke-opacity:1;marker:none;enable-background:accumulate"
       inkscape:connector-curvature="0" /><path
       style="color:#000000;display:inline;overflow:visible;visibility:visible;fill:none;stroke:#4a9ce6;stroke-width:2.15098;stroke-linecap:round;stroke-linejoin:round;stroke-miterlimit:4;stroke-dasharray:none;stroke-dashoffset:0;stroke-opacity:1;marker:none;enable-background:accumulate"
       d="m 1773.2765,698.02424 c -14.2091,0 -25.7303,3.37973 -25.7303,7.53939 0,4.15961 11.5212,7.51853 25.7303,7.51853 14.209,0 25.7299,-3.35892 25.7299,-7.51853 0,-4.15966 -11.5209,-7.53939 -25.7299,-7.53939 z"
       id="path3300-9-8-3-3-9-8-3"
       inkscape:connector-curvature="0"
       sodipodi:nodetypes="sssss" /><g
       id="g8744-1-2-0-2-5-6-4"
       transform="matrix(0.86039199,0,0,0.86039199,702.05313,-149.98538)"><path
         d="m 1227.6825,990.32006 c 0,-4.10674 4.9224,-6.13008 9.5679,-6.05721 4.6456,0.0732 10.7334,2.74159 10.7334,6.48293 0,3.74044 -6.3572,3.56613 -10.7334,3.56613 -2.2043,0 -6.2112,0.27933 -7.9355,-0.69884 -1.7003,-0.96573 -1.7055,-3.29301 -1.6324,-3.29301 z"
         id="path468-4-1-4-0-0-2-0"
         style="fill:#000000;fill-opacity:1;fill-rule:nonzero;stroke:#000000;stroke-width:2.20433;stroke-linecap:butt;stroke-linejoin:round;stroke-miterlimit:4;stroke-dasharray:none;stroke-opacity:1"
         inkscape:connector-curvature="0" /><path
         d="m 1227.6825,990.32006 c 0,-4.10674 4.9224,-6.13008 9.5679,-6.05721 4.6456,0.0732 10.7334,2.74159 10.7334,6.48293 0,3.74044 -6.3572,3.56613 -10.7334,3.56613 -2.2043,0 -6.2112,0.27933 -7.9355,-0.69884 -1.7003,-0.96573 -1.7055,-3.29301 -1.6324,-3.29301 z"
         id="path472-7-0-6-5-5-0-0"
         style="fill:#a67e33;fill-opacity:1;fill-rule:nonzero;stroke:#000000;stroke-width:1.76347;stroke-linecap:butt;stroke-linejoin:round;stroke-miterlimit:4;stroke-dasharray:none;stroke-opacity:1"
         inkscape:connector-curvature="0" /><path
         d="m 1262.264,973.83207 c 0,10.16936 -8.2434,18.41259 -18.4125,18.41259 -10.1695,0 -18.4129,-8.24323 -18.4129,-18.41259 0,-10.1694 8.2434,-18.41293 18.4129,-18.41293 10.1691,0 18.4125,8.24353 18.4125,18.41293 z"
         id="path524-8-2-0-1-2-1-8"
         style="fill:#000000;fill-opacity:1;fill-rule:evenodd;stroke:#000000;stroke-width:2.9503;stroke-linecap:butt;stroke-linejoin:round;stroke-miterlimit:4;stroke-dasharray:none;stroke-opacity:1"
         inkscape:connector-curvature="0" /><path
         d="m 1262.264,973.83207 c 0,10.16936 -8.2434,18.41259 -18.4125,18.41259 -10.1695,0 -18.4129,-8.24323 -18.4129,-18.41259 0,-10.1694 8.2434,-18.41293 18.4129,-18.41293 10.1691,0 18.4125,8.24353 18.4125,18.41293 z"
         id="path528-4-3-9-8-3-4-17"
         style="fill:#ffa500;fill-opacity:1;fill-rule:evenodd;stroke:#000000;stroke-width:1.31125;stroke-linecap:butt;stroke-linejoin:miter;stroke-miterlimit:4;stroke-dasharray:none;stroke-opacity:1"
         inkscape:connector-curvature="0" /><path
         inkscape:connector-curvature="0"
         style="opacity:0.3;fill:#d40000;fill-opacity:1;fill-rule:evenodd;stroke:none"
         id="path530-6-0-0-5-4-8-4"
         d="m 1259.611,965.67966 c 0.1067,0.81406 0.2052,1.63468 0.2052,2.47993 0,10.49872 -8.5125,19.03322 -19.0126,19.03322 -4.8301,0 -9.1847,-1.86446 -12.5391,-4.83508 3.0222,5.51853 8.8526,9.28056 15.5906,9.28056 9.8386,0 17.7845,-7.96528 17.7845,-17.80359 0,-2.95063 -0.7602,-5.70596 -2.0286,-8.15504 z" /><path
         d="m 1243.0216,990.32006 c 0,-4.10674 4.9225,-6.13008 9.5682,-6.05721 4.6454,0.0732 10.7335,2.74159 10.7335,6.48293 0,3.74044 -6.3573,3.56613 -10.7335,3.56613 -2.2042,0 -6.2112,0.27933 -7.9371,-0.69884 -1.7003,-0.96573 -1.7039,-3.29301 -1.6311,-3.29301 z"
         id="path538-1-6-1-6-2-6-2"
         style="fill:#000000;fill-opacity:1;fill-rule:nonzero;stroke:#000000;stroke-width:2.20433;stroke-linecap:butt;stroke-linejoin:round;stroke-miterlimit:4;stroke-dasharray:none;stroke-opacity:1"
         inkscape:connector-curvature="0" /><path
         d="m 1243.0216,990.32006 c 0,-4.10674 4.9215,-6.13008 9.5682,-6.05721 4.6454,0.0732 10.7335,2.74159 10.7335,6.48293 0,3.74044 -6.3573,3.56613 -10.7335,3.56613 -2.2042,0 -6.2112,0.27933 -7.9371,-0.69884 -1.7003,-0.96573 -1.7039,-3.29301 -1.6311,-3.29301 z"
         id="path542-8-1-7-3-6-0-51"
         style="fill:#a67e33;fill-opacity:1;fill-rule:nonzero;stroke:#000000;stroke-width:1.76346;stroke-linecap:butt;stroke-linejoin:round;stroke-miterlimit:4;stroke-dasharray:none;stroke-opacity:1"
         inkscape:connector-curvature="0" /><path
         sodipodi:nodetypes="sssss"
         inkscape:connector-curvature="0"
         style="color:#000000;display:inline;overflow:visible;visibility:visible;fill:#1a1a1a;fill-opacity:1;fill-rule:nonzero;stroke:none;stroke-width:4;marker:none;enable-background:accumulate"
         d="m 1253.5811,973.64628 c 0,3.19142 -1.3204,5.77859 -2.9492,5.77859 -1.6288,0 -2.9492,-2.58717 -2.9492,-5.77859 0,-3.19142 1.3204,-5.77858 2.9492,-5.77858 1.6288,0 2.9492,2.58716 2.9492,5.77858 z"
         id="path3308-6-4-3-3-2-2-4-4" /><path
         sodipodi:nodetypes="sscsscs"
         id="path3312-6-2-2-6-9-5-9-1"
         d="m 1250.6399,967.86633 c -1.6288,0 -2.9479,2.5831 -2.9479,5.77452 0,2.7504 0.9879,5.06094 2.3012,5.6474 -0.6631,-1.06351 -1.084,-2.67727 -1.084,-4.48523 0,-3.19142 1.319,-5.77452 2.9478,-5.77452 0.2251,0 0.436,0.0518 0.6467,0.14527 -0.5076,-0.81052 -1.1575,-1.30744 -1.8638,-1.30744 z"
         style="color:#000000;display:inline;overflow:visible;visibility:visible;fill:#000000;fill-opacity:1;fill-rule:nonzero;stroke:none;stroke-width:4;marker:none;enable-background:accumulate"
         inkscape:connector-curvature="0" /><path
         sodipodi:nodetypes="sssss"
         inkscape:connector-curvature="0"
         style="color:#000000;display:inline;overflow:visible;visibility:visible;fill:#1a1a1a;fill-opacity:1;fill-rule:nonzero;stroke:none;stroke-width:4;marker:none;enable-background:accumulate"
         d="m 1245.8408,973.64169 c 0,3.19142 -1.3204,5.77859 -2.9493,5.77859 -1.6288,0 -2.9492,-2.58717 -2.9492,-5.77859 0,-3.19143 1.3204,-5.77859 2.9492,-5.77859 1.6289,0 2.9493,2.58716 2.9493,5.77859 z"
         id="path3308-6-8-1-0-0-0-2-1-6" /><path
         sodipodi:nodetypes="sscsscs"
         id="path3312-6-9-0-8-5-7-4-4-8"
         d="m 1242.8995,967.86173 c -1.6288,0 -2.9479,2.58311 -2.9479,5.77453 0,2.75039 0.988,5.06094 2.3013,5.64741 -0.6632,-1.06353 -1.0841,-2.67729 -1.0841,-4.48524 0,-3.19143 1.319,-5.77453 2.9479,-5.77453 0.2251,0 0.436,0.0518 0.6466,0.14528 -0.5076,-0.81052 -1.1574,-1.30745 -1.8638,-1.30745 z"
         style="color:#000000;display:inline;overflow:visible;visibility:visible;fill:#000000;fill-opacity:1;fill-rule:nonzero;stroke:none;stroke-width:4;marker:none;enable-background:accumulate"
         inkscape:connector-curvature="0" /><path
         style="opacity:0.3;fill:#000000;fill-opacity:1;stroke:none"
         d="m 1259.8795,986.97487 c -0.1667,3.16667 -3.5833,6.20833 -10.625,6.875 h 10 l 3.75,-1.625 -0.125,-3 z"
         id="path8730-0-4-4-0-0-8-2"
         inkscape:connector-curvature="0"
         sodipodi:nodetypes="cccccc" /></g><path
       id="path3298-6-5-2-4-0-86"
       d="m 1872.1951,705.19594 c 0,2.48057 -8.0343,4.4914 -17.945,4.4914 -9.9107,0 -17.9448,-2.01083 -17.9448,-4.4914 0,-2.48045 8.0341,-4.49134 17.9448,-4.49134 9.9107,0 17.945,2.01089 17.945,4.49134 z"
       style="color:#000000;display:inline;overflow:visible;visibility:visible;fill:none;stroke:#6ac1ff;stroke-width:1.97302;stroke-linecap:round;stroke-linejoin:round;stroke-miterlimit:4;stroke-dashoffset:0;stroke-opacity:1;marker:none;enable-background:accumulate"
       inkscape:connector-curvature="0" /><path
       style="color:#000000;display:inline;overflow:visible;visibility:visible;fill:none;stroke:#4a9ce6;stroke-width:1.97302;stroke-linecap:round;stroke-linejoin:round;stroke-miterlimit:4;stroke-dasharray:none;stroke-dashoffset:0;stroke-opacity:1;marker:none;enable-background:accumulate"
       d="m 1854.2815,698.7126 c -13.0334,0 -23.6013,3.10011 -23.6013,6.91562 0,3.81546 10.5679,6.89648 23.6013,6.89648 13.0335,0 23.6013,-3.08102 23.6013,-6.89648 0,-3.81551 -10.5678,-6.91562 -23.6013,-6.91562 z"
       id="path3300-9-8-3-3-9-9"
       inkscape:connector-curvature="0"
       sodipodi:nodetypes="sssss" /><g
       id="g8744-1-2-0-2-5-5"
       transform="matrix(0.78920714,0,0,0.78920714,871.68636,-79.136623)"><path
         d="m 1227.6825,990.32006 c 0,-4.10674 4.9224,-6.13008 9.5679,-6.05721 4.6456,0.0732 10.7334,2.74159 10.7334,6.48293 0,3.74044 -6.3572,3.56613 -10.7334,3.56613 -2.2043,0 -6.2112,0.27933 -7.9355,-0.69884 -1.7003,-0.96573 -1.7055,-3.29301 -1.6324,-3.29301 z"
         id="path468-4-1-4-0-0-8"
         style="fill:#000000;fill-opacity:1;fill-rule:nonzero;stroke:#000000;stroke-width:2.20433;stroke-linecap:butt;stroke-linejoin:round;stroke-miterlimit:4;stroke-dasharray:none;stroke-opacity:1"
         inkscape:connector-curvature="0" /><path
         d="m 1227.6825,990.32006 c 0,-4.10674 4.9224,-6.13008 9.5679,-6.05721 4.6456,0.0732 10.7334,2.74159 10.7334,6.48293 0,3.74044 -6.3572,3.56613 -10.7334,3.56613 -2.2043,0 -6.2112,0.27933 -7.9355,-0.69884 -1.7003,-0.96573 -1.7055,-3.29301 -1.6324,-3.29301 z"
         id="path472-7-0-6-5-5-9"
         style="fill:#a67e33;fill-opacity:1;fill-rule:nonzero;stroke:#000000;stroke-width:1.76346;stroke-linecap:butt;stroke-linejoin:round;stroke-miterlimit:4;stroke-dasharray:none;stroke-opacity:1"
         inkscape:connector-curvature="0" /><path
         d="m 1262.264,973.83207 c 0,10.16936 -8.2434,18.41259 -18.4125,18.41259 -10.1695,0 -18.4129,-8.24323 -18.4129,-18.41259 0,-10.1694 8.2434,-18.41293 18.4129,-18.41293 10.1691,0 18.4125,8.24353 18.4125,18.41293 z"
         id="path524-8-2-0-1-2-9"
         style="fill:#000000;fill-opacity:1;fill-rule:evenodd;stroke:#000000;stroke-width:2.9503;stroke-linecap:butt;stroke-linejoin:round;stroke-miterlimit:4;stroke-dasharray:none;stroke-opacity:1"
         inkscape:connector-curvature="0" /><path
         d="m 1262.264,973.83207 c 0,10.16936 -8.2434,18.41259 -18.4125,18.41259 -10.1695,0 -18.4129,-8.24323 -18.4129,-18.41259 0,-10.1694 8.2434,-18.41293 18.4129,-18.41293 10.1691,0 18.4125,8.24353 18.4125,18.41293 z"
         id="path528-4-3-9-8-3-9"
         style="fill:#ffa500;fill-opacity:1;fill-rule:evenodd;stroke:#000000;stroke-width:1.31125;stroke-linecap:butt;stroke-linejoin:miter;stroke-miterlimit:4;stroke-dasharray:none;stroke-opacity:1"
         inkscape:connector-curvature="0" /><path
         inkscape:connector-curvature="0"
         style="opacity:0.3;fill:#d40000;fill-opacity:1;fill-rule:evenodd;stroke:none"
         id="path530-6-0-0-5-4-3"
         d="m 1259.611,965.67966 c 0.1067,0.81406 0.2052,1.63468 0.2052,2.47993 0,10.49872 -8.5125,19.03322 -19.0126,19.03322 -4.8301,0 -9.1847,-1.86446 -12.5391,-4.83508 3.0222,5.51853 8.8526,9.28056 15.5906,9.28056 9.8386,0 17.7845,-7.96528 17.7845,-17.80359 0,-2.95063 -0.7602,-5.70596 -2.0286,-8.15504 z" /><path
         d="m 1243.0216,990.32006 c 0,-4.10674 4.9225,-6.13008 9.5682,-6.05721 4.6454,0.0732 10.7335,2.74159 10.7335,6.48293 0,3.74044 -6.3573,3.56613 -10.7335,3.56613 -2.2042,0 -6.2112,0.27933 -7.9371,-0.69884 -1.7003,-0.96573 -1.7039,-3.29301 -1.6311,-3.29301 z"
         id="path538-1-6-1-6-2-3"
         style="fill:#000000;fill-opacity:1;fill-rule:nonzero;stroke:#000000;stroke-width:2.20433;stroke-linecap:butt;stroke-linejoin:round;stroke-miterlimit:4;stroke-dasharray:none;stroke-opacity:1"
         inkscape:connector-curvature="0" /><path
         d="m 1243.0216,990.32006 c 0,-4.10674 4.9215,-6.13008 9.5682,-6.05721 4.6454,0.0732 10.7335,2.74159 10.7335,6.48293 0,3.74044 -6.3573,3.56613 -10.7335,3.56613 -2.2042,0 -6.2112,0.27933 -7.9371,-0.69884 -1.7003,-0.96573 -1.7039,-3.29301 -1.6311,-3.29301 z"
         id="path542-8-1-7-3-6-02"
         style="fill:#a67e33;fill-opacity:1;fill-rule:nonzero;stroke:#000000;stroke-width:1.76346;stroke-linecap:butt;stroke-linejoin:round;stroke-miterlimit:4;stroke-dasharray:none;stroke-opacity:1"
         inkscape:connector-curvature="0" /><path
         sodipodi:nodetypes="sssss"
         inkscape:connector-curvature="0"
         style="color:#000000;display:inline;overflow:visible;visibility:visible;fill:#1a1a1a;fill-opacity:1;fill-rule:nonzero;stroke:none;stroke-width:4;marker:none;enable-background:accumulate"
         d="m 1249.1085,972.15392 c 0,3.19142 -1.3204,5.77859 -2.9492,5.77859 -1.6288,0 -2.9492,-2.58717 -2.9492,-5.77859 0,-3.19142 1.3204,-5.77858 2.9492,-5.77858 1.6288,0 2.9492,2.58716 2.9492,5.77858 z"
         id="path3308-6-4-3-3-2-2-2" /><path
         sodipodi:nodetypes="sscsscs"
         id="path3312-6-2-2-6-9-5-7"
         d="m 1246.1673,966.37397 c -1.6288,0 -2.9479,2.5831 -2.9479,5.77452 0,2.7504 0.9879,5.06094 2.3012,5.6474 -0.6631,-1.06351 -1.084,-2.67727 -1.084,-4.48523 0,-3.19142 1.319,-5.77452 2.9478,-5.77452 0.2251,0 0.436,0.0518 0.6467,0.14527 -0.5076,-0.81052 -1.1575,-1.30744 -1.8638,-1.30744 z"
         style="color:#000000;display:inline;overflow:visible;visibility:visible;fill:#000000;fill-opacity:1;fill-rule:nonzero;stroke:none;stroke-width:4;marker:none;enable-background:accumulate"
         inkscape:connector-curvature="0" /><path
         sodipodi:nodetypes="sssss"
         inkscape:connector-curvature="0"
         style="color:#000000;display:inline;overflow:visible;visibility:visible;fill:#1a1a1a;fill-opacity:1;fill-rule:nonzero;stroke:none;stroke-width:4;marker:none;enable-background:accumulate"
         d="m 1241.3682,972.14933 c 0,3.19142 -1.3204,5.77859 -2.9493,5.77859 -1.6288,0 -2.9492,-2.58717 -2.9492,-5.77859 0,-3.19143 1.3204,-5.77859 2.9492,-5.77859 1.6289,0 2.9493,2.58716 2.9493,5.77859 z"
         id="path3308-6-8-1-0-0-0-2-4" /><path
         sodipodi:nodetypes="sscsscs"
         id="path3312-6-9-0-8-5-7-4-7"
         d="m 1238.4269,966.36937 c -1.6288,0 -2.9479,2.58311 -2.9479,5.77453 0,2.75039 0.988,5.06094 2.3013,5.64741 -0.6632,-1.06353 -1.0841,-2.67729 -1.0841,-4.48524 0,-3.19143 1.319,-5.77453 2.9479,-5.77453 0.2251,0 0.436,0.0518 0.6466,0.14528 -0.5076,-0.81052 -1.1574,-1.30745 -1.8638,-1.30745 z"
         style="color:#000000;display:inline;overflow:visible;visibility:visible;fill:#000000;fill-opacity:1;fill-rule:nonzero;stroke:none;stroke-width:4;marker:none;enable-background:accumulate"
         inkscape:connector-curvature="0" /><path
         style="opacity:0.3;fill:#000000;fill-opacity:1;stroke:none"
         d="m 1259.8795,986.97487 c -0.1667,3.16667 -3.5833,6.20833 -10.625,6.875 h 10 l 3.75,-1.625 -0.125,-3 z"
         id="path8730-0-4-4-0-0-3"
         inkscape:connector-curvature="0"
         sodipodi:nodetypes="cccccc" /></g><path
       id="path3298-6-5-2-4-4"
       d="m 1838.2136,729.44918 c 0,4.0048 -12.9709,7.2512 -28.9714,7.2512 -16.0004,0 -28.9713,-3.2464 -28.9713,-7.2512 0,-4.0046 12.9709,-7.2511 28.9713,-7.2511 16.0005,0 28.9714,3.2465 28.9714,7.2511 z"
       style="color:#000000;display:inline;overflow:visible;visibility:visible;fill:none;stroke:#6ac1ff;stroke-width:3.18536;stroke-linecap:round;stroke-linejoin:round;stroke-miterlimit:4;stroke-dashoffset:0;stroke-opacity:1;marker:none;enable-background:accumulate"
       inkscape:connector-curvature="0" /><path
       style="color:#000000;display:inline;overflow:visible;visibility:visible;fill:none;stroke:#4a9ce6;stroke-width:3.18536;stroke-linecap:round;stroke-linejoin:round;stroke-miterlimit:4;stroke-dasharray:none;stroke-dashoffset:0;stroke-opacity:1;marker:none;enable-background:accumulate"
       d="m 1809.293,718.98208 c -21.042,0 -38.1034,5.005 -38.1034,11.165 0,6.1599 17.0614,11.1341 38.1034,11.1341 21.0418,0 38.1033,-4.9742 38.1033,-11.1341 0,-6.16 -17.0615,-11.165 -38.1033,-11.165 z"
       id="path3300-9-8-3-3-0"
       inkscape:connector-curvature="0"
       sodipodi:nodetypes="sssss" /><g
       id="g8744-1-2-0-2-1"
       transform="matrix(1.2741451,0,0,1.2741451,222.93033,-536.8261)"><path
         d="m 1227.6825,990.32006 c 0,-4.10674 4.9224,-6.13008 9.5679,-6.05721 4.6456,0.0732 10.7334,2.74159 10.7334,6.48293 0,3.74044 -6.3572,3.56613 -10.7334,3.56613 -2.2043,0 -6.2112,0.27933 -7.9355,-0.69884 -1.7003,-0.96573 -1.7055,-3.29301 -1.6324,-3.29301 z"
         id="path468-4-1-4-0-5"
         style="fill:#000000;fill-opacity:1;fill-rule:nonzero;stroke:#000000;stroke-width:2.20433;stroke-linecap:butt;stroke-linejoin:round;stroke-miterlimit:4;stroke-dasharray:none;stroke-opacity:1"
         inkscape:connector-curvature="0" /><path
         d="m 1227.6825,990.32006 c 0,-4.10674 4.9224,-6.13008 9.5679,-6.05721 4.6456,0.0732 10.7334,2.74159 10.7334,6.48293 0,3.74044 -6.3572,3.56613 -10.7334,3.56613 -2.2043,0 -6.2112,0.27933 -7.9355,-0.69884 -1.7003,-0.96573 -1.7055,-3.29301 -1.6324,-3.29301 z"
         id="path472-7-0-6-5-7"
         style="fill:#a67e33;fill-opacity:1;fill-rule:nonzero;stroke:#000000;stroke-width:1.76346;stroke-linecap:butt;stroke-linejoin:round;stroke-miterlimit:4;stroke-dasharray:none;stroke-opacity:1"
         inkscape:connector-curvature="0" /><path
         d="m 1262.264,973.83207 c 0,10.16936 -8.2434,18.41259 -18.4125,18.41259 -10.1695,0 -18.4129,-8.24323 -18.4129,-18.41259 0,-10.1694 8.2434,-18.41293 18.4129,-18.41293 10.1691,0 18.4125,8.24353 18.4125,18.41293 z"
         id="path524-8-2-0-1-8"
         style="fill:#000000;fill-opacity:1;fill-rule:evenodd;stroke:#000000;stroke-width:2.9503;stroke-linecap:butt;stroke-linejoin:round;stroke-miterlimit:4;stroke-dasharray:none;stroke-opacity:1"
         inkscape:connector-curvature="0" /><path
         d="m 1262.264,973.83207 c 0,10.16936 -8.2434,18.41259 -18.4125,18.41259 -10.1695,0 -18.4129,-8.24323 -18.4129,-18.41259 0,-10.1694 8.2434,-18.41293 18.4129,-18.41293 10.1691,0 18.4125,8.24353 18.4125,18.41293 z"
         id="path528-4-3-9-8-9"
         style="fill:#ffa500;fill-opacity:1;fill-rule:evenodd;stroke:#000000;stroke-width:1.31125;stroke-linecap:butt;stroke-linejoin:miter;stroke-miterlimit:4;stroke-dasharray:none;stroke-opacity:1"
         inkscape:connector-curvature="0" /><path
         inkscape:connector-curvature="0"
         style="opacity:0.3;fill:#d40000;fill-opacity:1;fill-rule:evenodd;stroke:none"
         id="path530-6-0-0-5-2"
         d="m 1259.611,965.67966 c 0.1067,0.81406 0.2052,1.63468 0.2052,2.47993 0,10.49872 -8.5125,19.03322 -19.0126,19.03322 -4.8301,0 -9.1847,-1.86446 -12.5391,-4.83508 3.0222,5.51853 8.8526,9.28056 15.5906,9.28056 9.8386,0 17.7845,-7.96528 17.7845,-17.80359 0,-2.95063 -0.7602,-5.70596 -2.0286,-8.15504 z" /><path
         d="m 1243.0216,990.32006 c 0,-4.10674 4.9225,-6.13008 9.5682,-6.05721 4.6454,0.0732 10.7335,2.74159 10.7335,6.48293 0,3.74044 -6.3573,3.56613 -10.7335,3.56613 -2.2042,0 -6.2112,0.27933 -7.9371,-0.69884 -1.7003,-0.96573 -1.7039,-3.29301 -1.6311,-3.29301 z"
         id="path538-1-6-1-6-9"
         style="fill:#000000;fill-opacity:1;fill-rule:nonzero;stroke:#000000;stroke-width:2.20433;stroke-linecap:butt;stroke-linejoin:round;stroke-miterlimit:4;stroke-dasharray:none;stroke-opacity:1"
         inkscape:connector-curvature="0" /><path
         d="m 1243.0216,990.32006 c 0,-4.10674 4.9215,-6.13008 9.5682,-6.05721 4.6454,0.0732 10.7335,2.74159 10.7335,6.48293 0,3.74044 -6.3573,3.56613 -10.7335,3.56613 -2.2042,0 -6.2112,0.27933 -7.9371,-0.69884 -1.7003,-0.96573 -1.7039,-3.29301 -1.6311,-3.29301 z"
         id="path542-8-1-7-3-4"
         style="fill:#a67e33;fill-opacity:1;fill-rule:nonzero;stroke:#000000;stroke-width:1.76346;stroke-linecap:butt;stroke-linejoin:round;stroke-miterlimit:4;stroke-dasharray:none;stroke-opacity:1"
         inkscape:connector-curvature="0" /><path
         sodipodi:nodetypes="sssss"
         inkscape:connector-curvature="0"
         style="color:#000000;display:inline;overflow:visible;visibility:visible;fill:#1a1a1a;fill-opacity:1;fill-rule:nonzero;stroke:none;stroke-width:4;marker:none;enable-background:accumulate"
         d="m 1250.3985,972.41196 c 0,3.19142 -1.3204,5.77859 -2.9492,5.77859 -1.6288,0 -2.9492,-2.58717 -2.9492,-5.77859 0,-3.19142 1.3204,-5.77858 2.9492,-5.77858 1.6288,0 2.9492,2.58716 2.9492,5.77858 z"
         id="path3308-6-4-3-3-2-5" /><path
         sodipodi:nodetypes="sscsscs"
         id="path3312-6-2-2-6-9-7"
         d="m 1247.4573,966.63201 c -1.6288,0 -2.9479,2.5831 -2.9479,5.77452 0,2.7504 0.9879,5.06094 2.3012,5.6474 -0.6631,-1.06351 -1.084,-2.67727 -1.084,-4.48523 0,-3.19142 1.319,-5.77452 2.9478,-5.77452 0.2251,0 0.436,0.0518 0.6467,0.14527 -0.5076,-0.81052 -1.1575,-1.30744 -1.8638,-1.30744 z"
         style="color:#000000;display:inline;overflow:visible;visibility:visible;fill:#000000;fill-opacity:1;fill-rule:nonzero;stroke:none;stroke-width:4;marker:none;enable-background:accumulate"
         inkscape:connector-curvature="0" /><path
         sodipodi:nodetypes="sssss"
         inkscape:connector-curvature="0"
         style="color:#000000;display:inline;overflow:visible;visibility:visible;fill:#1a1a1a;fill-opacity:1;fill-rule:nonzero;stroke:none;stroke-width:4;marker:none;enable-background:accumulate"
         d="m 1242.6582,972.40737 c 0,3.19142 -1.3204,5.77859 -2.9493,5.77859 -1.6288,0 -2.9492,-2.58717 -2.9492,-5.77859 0,-3.19143 1.3204,-5.77859 2.9492,-5.77859 1.6289,0 2.9493,2.58716 2.9493,5.77859 z"
         id="path3308-6-8-1-0-0-0-4" /><path
         sodipodi:nodetypes="sscsscs"
         id="path3312-6-9-0-8-5-7-7"
         d="m 1239.7169,966.62741 c -1.6288,0 -2.9479,2.58311 -2.9479,5.77453 0,2.75039 0.988,5.06094 2.3013,5.64741 -0.6632,-1.06353 -1.0841,-2.67729 -1.0841,-4.48524 0,-3.19143 1.319,-5.77453 2.9479,-5.77453 0.2251,0 0.436,0.0518 0.6466,0.14528 -0.5076,-0.81052 -1.1574,-1.30745 -1.8638,-1.30745 z"
         style="color:#000000;display:inline;overflow:visible;visibility:visible;fill:#000000;fill-opacity:1;fill-rule:nonzero;stroke:none;stroke-width:4;marker:none;enable-background:accumulate"
         inkscape:connector-curvature="0" /><path
         style="opacity:0.3;fill:#000000;fill-opacity:1;stroke:none"
         d="m 1259.8795,986.97487 c -0.1667,3.16667 -3.5833,6.20833 -10.625,6.875 h 10 l 3.75,-1.625 -0.125,-3 z"
         id="path8730-0-4-4-0-5"
         inkscape:connector-curvature="0"
         sodipodi:nodetypes="cccccc" /></g></g><g
     id="g179"
     transform="translate(1838.6655,-698.38478)"><path
       d="m -978.69727,894.54297 -12.33789,0.0488 -6.04296,29.65039 -32.87108,-0.1211 -0.9531,4.37891 h 33.16597 l -1.26562,6.24023 12.10351,0.0449 z m -63.31253,0.84375 -32.3691,159.49608 h -33.791 l -2.1387,10.543 h 46.1094 l 2.1387,-10.543 h -7.4336 L -1043.8457,928.5 h 7.4336 l 0.8926,-4.39844 -6.8946,-0.0254 6.2461,-28.68945 z m -211.5664,9.38476 -6.1621,30.36524 h -39.3711 l -24.3027,119.74608 h -34.1973 l -2.1406,10.543 h 46.5176 l 10.6679,-52.5664 h -6.8261 l 8.1777,-40.29495 h 6.8262 l 5.457,-26.88476 h 39.3711 l 8.3027,-40.90821 z m 559.15628,4.91602 -12.7207,3.86328 -3.28711,18.64063 h 12.03906 z m -398.12308,7.48828 -16.4746,26.88477 -6.207,-3.24219 c -8.7591,-4.3251 -18.1364,-7.84603 -28.041,-7.7168 -9.802,0 -17.6412,3.36522 -25.0469,10.97852 -7.2154,7.4513 -12.4462,18.03175 -15.3574,32.37695 -2.9098,14.3378 -1.8794,24.45317 1.5117,30.75587 1.98,3.4345 4.7285,5.841 8.9316,7.2676 -2.2483,-6.3371 -2.7362,-15.29722 -0.2636,-27.4805 2.9112,-14.3452 8.142,-24.92565 15.3574,-32.37695 7.4057,-7.6133 15.2449,-10.97852 25.0469,-10.97852 9.9046,-0.1292 19.2819,3.3917 28.041,7.7168 l 5.0312,2.6289 z m -280.1367,17.96094 -2.1406,10.54297 h 27.0527 l 2.1406,-10.54297 z m 372.8047,3.90625 -8.5078,41.91797 c 3.6987,-12.44279 9.8823,-23.39794 18.51952,-32.5 0.15634,-0.16476 0.33231,-0.30224 0.49023,-0.46485 l 1.81641,-8.95312 z m 311.84375,3.6914 -4.35742,24.72071 h -24.25781 l -7.52735,42.69332 -0.0176,0.09 c -0.71481,3.5563 -0.50172,6.0134 0.0723,7.7441 3.56584,1.088 7.12901,0.9534 10.60742,-0.031 l 7.04492,-39.95315 h 24.25782 l 6.21679,-35.26368 z m -91.03711,0.83399 c 1.05677,1.87672 1.91188,3.87565 2.56055,5.99805 l 0.64258,-3.64454 c -1.01931,-0.84414 -2.08261,-1.63485 -3.20313,-2.35351 z m -124.39258,5.07226 c 0.70253,1.15473 1.43007,2.28917 1.99805,3.55274 3.96335,8.81799 5.59853,18.97034 5.22656,30.36328 l 4.26953,-21.03516 c -2.6557,-5.29816 -6.55221,-9.59062 -11.49414,-12.88086 z m -43.29297,16.38086 c -7.51282,0.18294 -12.46467,2.58195 -16.99218,9.36329 h 27.3789 c -0.27801,-2.32136 -0.88963,-4.27893 -1.81054,-5.92774 -1.12461,-2.01334 -2.80012,-3.25211 -8.57618,-3.43555 z m 117.73633,0.91797 c -7.5089,0 -11.55382,2.02632 -14.85742,6.51172 -3.5792,4.9479 -6.84473,13.03247 -9.11133,24.20117 l -11.81836,58.23046 h -33.79101 l -2.13867,10.543 h 46.10937 l 11.81836,-58.2305 c 2.2666,-11.16869 5.53213,-19.25326 9.11133,-24.20116 2.67927,-3.63773 5.95173,-5.58507 11.05859,-6.21875 0.69081,-5.41515 0.3825,-11.24045 -6.38086,-10.83594 z m 53.91016,1.51563 c -0.2636,2.83599 -0.70623,5.77098 -1.32031,8.79687 l -15.95704,78.63085 h -33.58593 l -2.14063,10.543 h 45.90625 l 15.95703,-78.63088 c 0.61408,-3.0259 1.05672,-5.96087 1.32032,-8.79687 h 3.58593 l 1.85938,-10.54297 z m -459.28708,15.65234 -6.0371,29.75198 h -56.6387 l -2.1406,10.5429 h 68.9589 l 0.4454,-2.1933 c -0.5917,-1.7429 -1.1275,-3.519 -1.5606,-5.3535 l -0.014,-0.061 -0.014,-0.06 c -2.1646,-9.8954 -2.3185,-20.80066 -0.7657,-32.62698 z m 222.791,13.72656 -11.7813,58.04882 h -33.791 l -2.1387,10.543 h 46.1094 l 6.9395,-34.1953 c -5.1858,-9.5181 -6.8316,-21.209 -5.3379,-34.39652 z m 40.80663,11.59182 c -10e-6,0 1.58928,4.9368 3.20312,6.5586 1.88573,1.8949 4.47485,3.2394 8.03906,3.9843 h 13.70508 c 3.14086,-0.4599 6.2228,-1.1178 9.22266,-2.1074 h 0.002 c 6.65687,-2.2553 13.10784,-5.046 19.26758,-8.4355 z m 63.38281,0 -1.85938,10.5429 h 2.09571 c -0.74755,0.4114 -1.53701,0.7332 -2.29297,1.127 l -4.21289,23.8945 c -6.6237,3.3575 -12.50614,6.3063 -22.54297,8.6016 -6.7827,1.5511 -14.07954,2.3086 -21.875,2.3086 h -0.0234 -0.0254 c -14.44357,-0.095 -26.80089,-3.3301 -36.12305,-10.0469 0.80676,1.216 1.64877,2.4103 2.58985,3.541 9.60737,11.5445 24.91927,16.9253 43.71289,17.0489 h 0.0254 0.0234 c 7.79546,0 15.09229,-0.7575 21.875,-2.3086 9.66316,-2.2099 15.46832,-5.0491 21.79882,-8.252 h -6.66601 l 9.42773,-46.457 z m -205.55664,9.414 -3.3633,1.2051 c -0.2494,0.093 -0.5042,0.1644 -0.7539,0.2559 l -5.7402,28.2793 c -15.2713,5.9615 -31.3058,9.6718 -47.8067,9.3437 -16.4909,0 -30.2529,-3.2246 -40.7656,-10.5175 l -0.061,-0.041 -0.062,-0.043 c -0.3877,-0.2801 -0.7374,-0.5971 -1.1153,-0.8868 3.1135,4.3631 6.8658,8.2281 11.2969,11.4297 l 0.06,0.043 0.061,0.041 c 10.5127,7.2929 24.2747,10.5176 40.7656,10.5176 16.5009,0.3281 32.5354,-3.3823 47.8067,-9.3438 l 0.6582,-3.2402 h -8.4981 z m 423.88672,1.6114 c -3.95928,3.9521 -8.31015,6.9875 -12.83204,8.5918 l -3.1621,22.8047 c -8.99094,2.4733 -18.10461,4.3561 -27.49024,4.0507 h -0.043 -0.041 c -8.0283,-0.089 -15.31057,-1.8213 -21.17774,-5.3496 0.70084,1.2717 1.46769,2.5066 2.35938,3.6719 6.33672,8.2811 16.85105,12.0862 28.99804,12.2207 h 0.041 0.043 c 9.38563,0.3054 18.49929,-1.5775 27.49023,-4.0508 z"
       style="-inkscape-font-specification:'Frutiger LT 65 Bold, Oblique';baseline-shift:baseline;display:inline;overflow:visible;opacity:0.3;vector-effect:none;fill:#000000;fill-opacity:1;enable-background:accumulate;stop-color:#000000;stop-opacity:1"
       id="path196" /><path
       d="m -988.87695,884 -44.85155,0.17773 -8.6856,39.89844 45.33598,0.16602 z m -97.10545,0.84375 -3.9531,19.47266 c -7.6874,-4.51282 -16.0514,-7.55779 -24.7344,-9.49805 -7.5333,-1.7453 -15.1915,-2.625 -22.9317,-2.625 v -0.006 c -16.1546,0 -30.9259,3.46415 -43.8769,10.49805 -12.7911,6.947 -23.4989,16.66554 -31.8594,28.87304 -8.3338,12.1684 -14.0709,26.14939 -17.2285,41.70899 -3.1881,15.7085 -3.5822,29.87646 -0.8281,42.46686 l 0.014,0.06 0.014,0.061 c 2.9831,12.6362 9.7631,23.1832 19.8438,30.4668 l 0.062,0.043 0.061,0.041 c 10.5127,7.2929 24.2747,10.5175 40.7656,10.5175 16.5009,0.3281 32.5354,-3.3822 47.8067,-9.3437 l 8.8418,-43.5664 -12.5274,4.4883 c -11.4152,4.2429 -23.1985,7.1902 -35.3965,7.5156 -11.395,0 -16.8754,-2.9545 -20.248,-8.8047 -3.3911,-6.3027 -4.4215,-16.41811 -1.5117,-30.75591 2.9112,-14.3452 8.142,-24.92565 15.3574,-32.37695 7.4057,-7.6133 15.2449,-10.97852 25.0469,-10.97852 9.9046,-0.12923 19.2819,3.3917 28.041,7.7168 l 6.207,3.24219 16.4746,-26.88477 -27.9453,137.70706 h 46.1094 l 34.5078,-170.03909 z m 56.4629,5.17187 h 30.80466 l -6.76566,30.51954 -30.7754,-0.125 z m -52.6328,0.12891 h 30.8046 l -22.1347,109.06445 -9.3301,45.97462 -0.018,0.082 h -30.8047 l 12.1211,-59.72263 c 0,0 0,0.002 0,0.002 z m -294.545,4.08399 -8.3027,40.9082 h 39.373 l -24.3027,119.74608 h 46.5176 l 24.3027,-119.74608 h 39.3711 l 8.3028,-40.9082 z m 236.795,3.25976 c 7.208,0 14.3193,0.81527 21.332,2.44727 7.1765,1.496 13.764,3.87662 19.7656,7.14062 l -15.25,24.88867 c -4.4268,-2.312 -9.2631,-4.28401 -14.5078,-5.91601 -5.0812,-1.7679 -10.7498,-2.65225 -17.0059,-2.65235 -11.696,0 -21.8396,4.41967 -30.4336,13.25977 -8.4304,8.7039 -14.2054,20.73942 -17.3242,36.10742 -0.9733,4.7961 -1.5237,9.22163 -1.7402,13.35547 0.023,-0.0239 0.051,-0.0444 0.074,-0.0684 -0.3454,6.47137 0.2183,12.14767 1.6856,17.03326 0.1685,0.5397 0.33,1.0859 0.5214,1.6055 0.305,0.8524 0.6779,1.6449 1.0469,2.4414 0.2399,0.5102 0.4478,1.0489 0.7129,1.5371 4.8168,8.432 13.7526,12.6484 26.8086,12.6484 6.3921,0 12.6649,-0.7481 18.8164,-2.2441 6.2877,-1.496 12.6582,-3.4009 19.1113,-5.7129 l -5.3828,26.5215 v 0 l -0.016,0.082 c -12.5536,4.896 -26.3115,7.3437 -41.2714,7.3437 -15.5041,0 -27.6663,-3.0597 -36.4883,-9.1796 -8.6584,-6.256 -14.3047,-14.9613 -16.9375,-26.1133 -0.5005,-2.2881 -0.8132,-4.7016 -1.0547,-7.1621 -0.1586,-1.3985 -0.2596,-2.8351 -0.3438,-4.2832 -0.01,-0.1595 -0.029,-0.3109 -0.037,-0.4707 0.01,0 0.015,0 0.024,0 -0.4387,-8.37775 0.2461,-17.50525 2.2812,-27.53319 2.9808,-14.6879 8.3376,-27.67685 16.0684,-38.96485 7.7308,-11.288 17.4807,-20.12753 29.25,-26.51953 11.7691,-6.392 25.2009,-9.58789 40.2969,-9.58789 z m 435.30269,1.65625 -45.26172,13.74609 -3.40234,19.30079 h -20.17969 l -3.06445,17.375 c -1.24182,-4.06315 -3.1941,-7.70317 -6,-10.81641 -7.4932,-8.4765 -19.01676,-12.29102 -32.56446,-12.29102 -12.3029,0 -23.46939,3.42651 -32.84179,9.90039 L -848.58008,928.5 h -36.68554 l -10.97071,54.05664 c 0.37197,-11.39294 -1.26321,-21.54529 -5.22656,-30.36328 -6.633,-14.7564 -22.64703,-22.06888 -43.23828,-22.44531 l -0.17383,-0.004 -0.16602,0.004 c -17.96095,0.45201 -33.47337,6.75335 -44.82226,18.71289 -8.63722,9.10206 -14.82082,20.05721 -18.51952,32.5 L -997.73633,928.5 h -46.10937 l -25.6484,126.3828 h 46.1093 l 11.7813,-58.04882 c -1.8594,16.41622 1.0466,30.57392 9.7383,41.01762 9.60734,11.5445 24.92119,16.9252 43.71481,17.0488 h 0.0254 0.0234 c 7.79546,0 15.0923,-0.7575 21.875,-2.3086 10.03683,-2.2953 15.91927,-5.2441 22.54297,-8.6016 l 6.26953,-35.5644 h 5.92773 l -9.42773,46.457 h 46.10937 l 11.81836,-58.23046 c 2.2666,-11.1687 5.53213,-19.25327 9.11133,-24.20117 3.3036,-4.4854 7.34852,-6.51172 14.85742,-6.51172 8.61465,-0.51524 6.79191,9.13347 5.7168,15.08008 l -14.99024,73.86327 h 45.90625 l 15.95704,-78.63085 c 0.61408,-3.02589 1.05671,-5.96088 1.32031,-8.79687 h 15.625 l -7.83789,44.44922 -0.004,0.016 c -2.03284,11.8253 -0.53618,22.6424 5.67383,30.7578 6.33672,8.2811 16.85106,12.0862 28.99805,12.2207 h 0.041 0.043 c 9.38563,0.3054 18.4993,-1.5774 27.49024,-4.0507 l 5.81445,-41.9395 c -7.39357,7.3803 -16.13305,11.7355 -24.85547,9.0742 -0.57399,-1.7307 -0.78708,-4.1878 -0.0723,-7.7441 l 0.0176,-0.09 7.52735,-42.69332 h 24.25781 l 6.2168,-35.26367 h -24.25586 z m -668.26759,0.38281 h 109.9551 l -5.2578,25.90821 h -39.3711 l -24.3028,119.74805 -0.017,0.082 h -31.2129 l 15.5762,-76.74607 v 0 l 8.7422,-43.08398 h -39.3711 z m 656.41408,8.38477 -5.24805,29.75976 h 24.25781 l -3.52344,19.97461 h -24.25586 l -8.62695,48.91992 c -0.934,4.6458 -0.79946,8.6556 0.40234,12.0273 1.2016,3.3718 4.32812,5.1374 9.38282,5.2989 2.4807,0 4.85288,-0.25 7.11328,-0.7383 2.2603,-0.4884 4.20082,-1.1937 5.82422,-2.1152 l -2.99414,21.6074 c -0.003,7e-4 -0.005,0 -0.008,0 l -0.0117,0.08 c -2.97201,0.8153 -6.13555,1.4263 -9.49415,1.834 -3.3588,0.4078 -7.06403,0.6113 -11.11523,0.6113 -10.727,-0.1189 -18.39742,-3.1925 -23.01172,-9.2226 -4.6143,-6.0301 -6.01834,-14.302 -4.21094,-24.8164 l 7.01954,-39.80082 c 0,0 0.002,0 0.002,0 l 2.41406,-13.6875 h -20.17969 l 3.52344,-19.97461 h 20.17969 l 3.70117,-20.99609 z m -100.91993,23.84766 c 12.24,0 21.23337,3.26496 26.98047,9.79296 5.7748,6.392 7.21246,16.72782 4.31446,31.00782 l -0.0176,0.082 -14.72071,72.54105 -0.0176,0.082 h -30.59961 l 0.0176,-0.082 13.14649,-64.7891 c 0.1451,-0.7152 0.19369,-1.32842 0.30859,-2.01172 0.002,-0.002 0.006,-0.002 0.008,-0.004 2.49308,-14.70252 -1.90795,-22.13868 -13.36329,-22.13868 -9.248,0 -16.22077,3.196 -20.91796,9.58789 -4.53361,6.256 -8.00115,15.30082 -10.40235,27.13282 l -10.59961,52.22269 -0.0176,0.082 h -30.80468 l 9.58984,-47.24805 c 0,0 0.002,0 0.002,0 l 13.03125,-64.2168 h 23.66407 l 1.26171,14.89063 h 1.22461 c 9.6349,-11.2881 22.27211,-16.93164 37.91211,-16.93164 z m -221.48635,2.13476 h 30.8028 l -22.6036,111.38277 v 0 l -0.018,0.084 h -30.8027 l 0.018,-0.084 9.0234,-44.4687 c 0,0 0,0 0,0 z m 91.84573,1.33203 c 19.0522,0.3483 31.18765,6.3275 36.40625,17.9375 5.2184,11.6101 6.00427,26.76198 2.35547,45.45508 h -0.008 c -0.005,0.0286 -0.006,0.0533 -0.0117,0.082 h -72.54883 c -0.7531,8.46346 1.1256,14.96896 5.64453,19.50976 4.5344,4.5566 11.08284,6.8593 19.64844,6.9063 6.6267,-0.085 13.00521,-1.1388 19.13281,-3.1602 6.1274,-2.0214 11.9905,-4.5008 17.5918,-7.4394 l -3.91797,22.2168 c -10e-4,6e-4 -0.003,0 -0.004,0 l -0.0137,0.082 c -5.4418,2.756 -11.23661,4.8365 -17.38281,6.2421 -6.1464,1.4056 -12.86943,2.1153 -20.16993,2.1153 -17.4246,-0.1146 -30.05367,-4.8803 -37.88867,-14.2949 -7.83512,-9.4145 -10.28432,-22.7903 -7.34572,-40.12898 0.024,-0.13336 0.06,-0.25766 0.084,-0.39062 2.7715,-15.45895 9.08618,-28.39665 18.96094,-38.80274 9.9413,-10.476 23.0959,-15.92013 39.4668,-16.33203 z m -1.89063,19.97461 c -7.6488,0.1486 -13.86593,2.5022 -18.64843,7.0586 -1.56765,1.49359 -2.91883,3.18157 -4.17188,4.95703 0.0146,-0.002 0.0284,-0.006 0.043,-0.008 -1.24127,1.74666 -2.32225,3.63797 -3.27148,5.64649 -0.10464,0.22731 -0.21954,0.44501 -0.32032,0.67578 -0.3175,0.70776 -0.60873,1.43824 -0.88867,2.17969 -0.45956,1.24871 -0.89548,2.5181 -1.25195,3.85937 -0.0271,0.10091 -0.0634,0.19345 -0.0899,0.29492 h 46.45508 c 0.20622,-1.63398 0.30463,-3.20615 0.31446,-4.71875 0.004,0.002 0.008,0.006 0.0117,0.008 0.0281,-4.80561 -0.94458,-9.00771 -2.94531,-12.58985 -2.6305,-4.7093 -7.70853,-7.16368 -15.23633,-7.36328 z m 2.15039,9.82031 c 5.77606,0.18344 7.45157,1.42221 8.57618,3.43555 0.92091,1.64881 1.53253,3.60638 1.81054,5.92774 h -27.3789 c 4.52751,-6.78134 9.47936,-9.18035 16.99218,-9.36329 z m -354.45899,7.54297 -8.1777,40.29495 h 68.959 l 8.1777,-40.29495 z m 3.832,5.29883 h 53.6504 l -5.1328,25.29692 v 0 l -0.018,0.082 h -53.6504 l 0.018,-0.082 5.1152,-25.21293 v 0 z m 326.58403,30.56252 h 53.43945 c -6.15974,3.3895 -12.61071,6.1802 -19.26758,8.4355 h -0.002 c -5.3598,1.7681 -10.91517,2.6883 -16.77149,2.7696 -7.1649,-0.053 -11.36082,-1.7982 -14.19531,-4.6465 -1.61384,-1.6218 -3.20313,-6.5586 -3.20312,-6.5586 z"
       style="-inkscape-font-specification:'Frutiger LT 65 Bold, Oblique';baseline-shift:baseline;display:inline;overflow:visible;vector-effect:none;enable-background:accumulate;stop-color:#000000;stop-opacity:1"
       id="path195" /><path
       d="m -1029.5195,890.01562 -6.7364,30.39454 30.7754,0.125 6.76566,-30.51954 z m -52.6328,0.12891 -19.3594,95.40039 c 6.2612,6.87087 16.4869,11.40319 28.0293,13.66406 l 22.1347,-109.06445 z m -57.75,7.34375 c -15.096,0 -28.5278,3.19589 -40.2969,9.58789 -11.7693,6.392 -21.5192,15.23153 -29.25,26.51953 -7.7308,11.288 -13.0876,24.27695 -16.0684,38.96485 -2.0351,10.02794 -2.7199,19.15544 -2.2812,27.53315 13.3267,-1.75377 25.4484,-6.41691 32.7324,-13.97456 0.2165,-4.13384 0.7669,-8.55937 1.7402,-13.35547 3.1188,-15.368 8.8938,-27.40352 17.3242,-36.10742 8.594,-8.8401 18.7376,-13.25977 30.4336,-13.25977 6.2561,10e-5 11.9247,0.88445 17.0059,2.65235 5.2447,1.632 10.081,3.60401 14.5078,5.91601 l 15.25,-24.88867 c -6.0016,-3.264 -12.5891,-5.64462 -19.7656,-7.14062 -7.0127,-1.632 -14.124,-2.44727 -21.332,-2.44727 z m -232.9649,2.03906 -5.2578,25.90821 h 39.3711 l -8.7422,43.08398 c 4.9838,-1.13684 10.1479,-1.82226 15.3379,-1.82226 5.3673,0 10.7064,0.73771 15.8457,1.94921 l -15.5313,76.53712 24.3028,-119.74805 h 39.3711 l 5.2578,-25.90821 z m 656.41408,8.38477 -28.85938,8.76367 -3.70117,20.99609 h -20.17969 l -3.52344,19.97461 h 20.17969 l -2.41406,13.6875 c 8.79988,3.32159 16.41187,8.15554 21.34375,13.79688 0.8998,1.0293 1.95634,1.96583 3.02344,2.89453 l -3.28516,18.62501 c -0.934,4.6458 -0.79946,8.6537 0.40234,12.0254 1.2016,3.3718 4.33007,5.1393 9.38477,5.3008 2.4807,0 4.85093,-0.252 7.11133,-0.7403 2.2603,-0.4884 4.20277,-1.1937 5.82617,-2.1152 l -2.98438,21.5273 c 0.003,-7e-4 0.005,0 0.008,0 l 2.99414,-21.6074 c -1.6234,0.9215 -3.56392,1.6268 -5.82422,2.1152 -2.2604,0.4883 -4.63258,0.7341 -7.11328,0.7383 -5.0547,-0.1615 -8.18122,-1.9271 -9.38282,-5.2989 -1.2018,-3.3717 -1.33634,-7.3815 -0.40234,-12.0273 l 8.62695,-48.91992 h 24.25586 l 3.52344,-19.97461 h -24.25781 z m -100.91993,23.84766 c -15.64,0 -28.27721,5.64354 -37.91211,16.93164 h -1.22461 l -1.26171,-14.89063 h -23.66407 l -13.03125,64.2168 c 7.12111,1.90318 14.90409,2.91402 22.73243,2.91402 2.5237,0 5.04101,-0.1205 7.54101,-0.3183 l -9.04297,44.5703 10.59961,-52.22266 c 2.4012,-11.832 5.86874,-20.87682 10.40235,-27.13282 4.69719,-6.39189 11.66996,-9.58789 20.91796,-9.58789 11.45534,0 15.85637,7.43616 13.36329,22.13868 8.64325,-6.03647 20.40241,-10.33585 32.62695,-11.38477 -0.2364,1.8642 -0.35913,3.62604 -0.76953,5.64844 l 0.0176,-0.082 c 2.898,-14.28 1.46034,-24.61582 -4.31446,-31.00782 -5.7471,-6.528 -14.74047,-9.79296 -26.98047,-9.79296 z m -221.48635,2.13476 -13.5801,66.91407 c 11.8949,-0.4285 23.4901,-3.0547 32.4043,-7.89454 l -10.6269,52.36324 v 0 l 22.6036,-111.38277 z m 91.84573,1.33203 c -16.3709,0.4119 -29.5255,5.85603 -39.4668,16.33203 -9.87476,10.40609 -16.18943,23.34379 -18.96093,38.80274 0.7377,-4.08368 1.7321,-7.98539 2.9648,-11.7168 8.15259,-5.80061 19.15804,-10.05202 30.75199,-11.42773 1.25305,-1.77546 2.60423,-3.46344 4.17188,-4.95703 4.7825,-4.5564 10.99963,-6.91 18.64843,-7.0586 7.5278,0.1996 12.60583,2.65398 15.23633,7.36328 2.00073,3.58214 2.97343,7.78424 2.94531,12.58985 5.19167,2.84338 9.67171,6.22968 12.94727,9.97656 2.702,3.0907 6.26346,5.67362 10.31836,7.85742 -0.28465,1.89046 -0.42527,3.66625 -0.80274,5.63086 h 0.008 c 3.6488,-18.6931 2.86293,-33.84498 -2.35547,-45.45508 -5.2186,-11.61 -17.35405,-17.5892 -36.40625,-17.9375 z m -27.93945,37.62891 c -0.10663,0.22561 -0.21755,0.4467 -0.32032,0.67578 0.10078,-0.23077 0.21568,-0.44847 0.32032,-0.67578 z m -1.20899,2.85547 c -0.46837,1.2405 -0.89265,2.52103 -1.25195,3.85937 0.35647,-1.34127 0.79239,-2.61066 1.25195,-3.85937 z m -321.21879,2.15234 -0.017,0.084 h 2.9804 c 3.2258,2.187 6.0469,4.60309 8.3028,7.18359 7.8244,8.9501 22.3093,14.059 37.7812,15.40433 l -0.5312,2.625 v 0 l 5.1328,-25.29691 z m 319.87699,2.00195 c -0.007,0.0283 -0.0181,0.0537 -0.0254,0.082 h 46.47461 c 0.004,-0.0285 0.002,-0.0536 0.006,-0.082 z m -3.33203,18.83594 c -0.7738,8.50593 1.10623,15.03733 5.64063,19.59373 4.5344,4.5566 11.08479,6.8573 19.65039,6.9043 6.6267,-0.085 13.00326,-1.1387 19.13086,-3.1601 6.1274,-2.0214 11.99245,-4.5009 17.59375,-7.4395 l -3.9043,22.1367 c 10e-4,-6e-4 0.003,0 0.004,0 l 3.91797,-22.2168 c -5.6013,2.9386 -11.4644,5.418 -17.5918,7.4394 -6.1276,2.0214 -12.50611,3.0753 -19.13281,3.1602 -8.5656,-0.047 -15.11404,-2.3497 -19.64844,-6.9063 -4.51893,-4.5408 -6.39763,-11.0463 -5.64453,-19.50973 z m -246.94926,1.86723 c 0.084,1.4481 0.1852,2.8847 0.3438,4.2832 -0.1386,-1.4118 -0.2638,-2.8323 -0.3438,-4.2832 z m 34.4786,2.5156 c 0.1634,0.5442 0.3342,1.0821 0.5214,1.6055 -0.1914,-0.5196 -0.3529,-1.0658 -0.5214,-1.6055 z m 1.5683,4.0469 c 0.2448,0.5283 0.422,1.1158 0.6953,1.6191 4.8168,8.4321 13.7526,12.6484 26.8086,12.6484 6.3921,0 12.663,-0.748 18.8145,-2.2441 6.2877,-1.4959 12.6582,-3.3988 19.1113,-5.7109 l -5.3633,26.4375 5.3828,-26.5215 c -6.4531,2.312 -12.8236,4.2169 -19.1113,5.7129 -6.1515,1.496 -12.4243,2.2441 -18.8164,2.2441 -13.056,0 -21.9918,-4.2164 -26.8086,-12.6484 -0.2651,-0.4882 -0.473,-1.0269 -0.7129,-1.5371 z"
       style="font-style:oblique;font-size:51.7442px;line-height:80%;font-family:'Frutiger LT 65 Bold';-inkscape-font-specification:'Frutiger LT 65 Bold, Oblique';letter-spacing:-2.58721px;word-spacing:0px;baseline-shift:baseline;display:inline;overflow:visible;vector-effect:none;fill:#9261a1;enable-background:accumulate;stop-color:#000000;stop-opacity:1"
       id="path194" /><path
       d="m -1332.1582,966.69727 c -5.1906,0 -10.3554,0.68516 -15.3398,1.82226 l -15.5762,76.74607 h 31.2129 l 15.5488,-76.61912 c -5.1393,-1.2115 -10.4784,-1.94921 -15.8457,-1.94921 z m 546.83203,0.29687 c -12.2278,1.0492 -23.99087,5.34967 -32.63477,11.38867 -0.1149,0.6833 -0.16349,1.29652 -0.30859,2.01172 l -13.16406,64.87107 h 30.59961 l 14.73828,-72.62302 c 0.4104,-2.0224 0.53313,-3.78424 0.76953,-5.64844 z m -186.35547,0.21484 c -11.61,1.3702 -22.63213,5.62765 -30.79496,11.43555 -1.2729,3.8529 -2.3052,7.87792 -3.0488,12.10742 -2.9386,17.33865 -0.4894,30.71445 7.34571,40.12895 7.835,9.4146 20.46407,14.1803 37.88867,14.2949 7.3005,0 14.02353,-0.7097 20.16993,-2.1153 6.1462,-1.4056 11.94101,-3.4861 17.38281,-6.2421 l 3.91797,-22.2188 c -5.6013,2.9386 -11.46635,5.4181 -17.59375,7.4395 -6.1276,2.0214 -12.50416,3.0752 -19.13086,3.1601 -8.5656,-0.047 -15.11599,-2.3477 -19.65039,-6.9043 -4.5344,-4.5564 -6.41443,-11.0878 -5.64063,-19.59373 h 72.56446 c 0.3902,-1.999 0.52565,-3.79489 0.81445,-5.71289 -4.0549,-2.1838 -7.61636,-4.76672 -10.31836,-7.85742 -3.2782,-3.7499 -7.76198,-7.13958 -12.95898,-9.98438 -0.01,1.5389 -0.10652,3.13609 -0.32032,4.80079 h -46.47461 c 1.2581,-4.866 3.24596,-9.07729 5.84766,-12.73829 z m 216.72852,4.125 -7.01954,39.80082 c -1.8074,10.5144 -0.40336,18.7863 4.21094,24.8164 4.6143,6.0301 12.28472,9.1037 23.01172,9.2226 4.0512,0 7.75643,-0.2035 11.11523,-0.6113 3.3586,-0.4077 6.52214,-1.0187 9.49415,-1.834 l 2.99609,-21.6074 c -1.6234,0.9215 -3.56587,1.6268 -5.82617,2.1152 -2.2604,0.4883 -4.63063,0.7361 -7.11133,0.7403 -5.0547,-0.1615 -8.18317,-1.929 -9.38477,-5.3008 -1.2018,-3.3717 -1.33634,-7.3796 -0.40234,-12.0254 l 3.28516,-18.62501 c -1.0671,-0.9287 -2.12364,-1.86523 -3.02344,-2.89453 -4.9322,-5.6417 -12.54511,-10.47528 -21.3457,-13.79688 z m -542.44728,6.61329 -5.1328,25.29493 h 53.6504 l 0.5488,-2.707 c -15.4719,-1.34534 -29.9568,-6.45424 -37.7812,-15.40434 -2.2559,-2.5805 -5.077,-4.99659 -8.3028,-7.18359 z m 195.8867,7.5957 -12.1211,59.72263 h 30.8047 l 9.3477,-46.05662 c -11.5435,-2.2611 -21.7702,-6.79401 -28.0313,-13.66601 z m -93.4785,0.50781 c -7.2806,7.6044 -19.4519,12.28998 -32.8301,14.04692 0.2132,4.1493 0.6164,8.1709 1.4356,11.916 2.6328,11.152 8.2791,19.8573 16.9375,26.1133 8.822,6.1199 20.9842,9.1796 36.4883,9.1796 14.9599,0 28.7178,-2.4477 41.2714,-7.3437 l 5.3809,-26.5195 c -6.4531,2.3121 -12.8236,4.215 -19.1113,5.7109 -6.1515,1.4961 -12.4224,2.2441 -18.8145,2.2441 -13.056,0 -21.9918,-4.2163 -26.8086,-12.6484 -3.2096,-5.9098 -4.4373,-13.55412 -3.9492,-22.69922 z m 174.957,6.86328 c -8.9147,4.8401 -20.5107,7.46624 -32.4062,7.89454 l -9.041,44.5527 h 30.8027 z m 125.56645,5.10352 -9.58984,47.24802 h 30.80468 l 9.06055,-44.6523 c -2.5,0.1978 -5.01731,0.3183 -7.54101,0.3183 -7.829,0 -15.61278,-1.01052 -22.73438,-2.91402 z"
       style="baseline-shift:baseline;display:inline;overflow:visible;vector-effect:none;fill:#854e88;stroke-linecap:square;stroke-miterlimit:11.3;enable-background:accumulate;stop-color:#000000;stop-opacity:1"
       id="path193" /></g><g
     id="g175"
     transform="translate(1850.6863,-705.45585)"><path
       d="m -998.11133,733.36523 24.80469,74.4375 2.16016,-12.2539 -20.72071,-62.1836 z m 80.76758,0 -12.82031,72.70899 c 3.5482,-10.10572 8.79283,-19.1586 15.76562,-26.93164 l 8.07227,-45.77735 z m 179.0957,0.002 -11.64062,3.53515 -3.55274,20.14453 h 11.01758 z M -1207.582,748.4707 c 1.7275,2.22715 3.328,4.57477 4.7168,7.10157 6.9119,12.57658 8.0111,28.83908 4.7675,48.46484 l -0.021,0.13281 -0.025,0.13086 c -5.8467,29.01304 -18.5177,50.3581 -38.3887,61.84961 -18.8441,10.89751 -40.3764,16.01706 -63.9883,15.42188 l 0.1934,0.002 h -37.0254 l -1.6504,9.36523 h 48.041 l -0.1934,-0.002 c 23.612,0.59516 45.1443,-4.52438 63.9883,-15.42188 7.8643,-4.5479 14.5555,-10.69621 20.1875,-18.19531 l 15.5293,-88.06836 c -0.6229,-1.4766 -1.2863,-2.92712 -2.0488,-4.31445 -3.5818,-6.51686 -8.3623,-12.02097 -14.082,-16.4668 z m 137.1113,0 c 1.7275,2.22715 3.328,4.57478 4.7168,7.10157 4.8605,8.84382 6.7088,19.60929 6.332,31.98632 l 3.7383,-21.19531 c -0.2379,-0.47325 -0.4507,-0.96301 -0.7051,-1.42578 -3.5817,-6.51667 -8.3626,-12.02082 -14.082,-16.4668 z m -66.2324,13.24219 c -3.0508,-0.19114 -6.18,-0.15848 -9.3594,0.008 l -14.4863,82.14258 c 3.7574,0 7.4747,-0.18795 11.125,-0.61719 l 12.7265,-72.16015 h 9.4258 c 7.2743,0.055 13.0866,1.63975 18.0781,4.81445 -0.8469,-1.39743 -1.7786,-2.72145 -2.873,-3.91211 -7.0316,-7.10654 -15.4843,-9.70197 -24.6367,-10.27539 z m -146.4707,0.008 -14.4864,82.14258 c 3.7574,0 7.4747,-0.18788 11.125,-0.61719 l 12.7266,-72.16015 h 9.4258 c 7.2743,0.055 13.0865,1.63975 18.0781,4.81445 -0.8468,-1.39737 -1.7787,-2.72154 -2.873,-3.91211 -6.3538,-6.91195 -13.9171,-10.18688 -24.5703,-10.26758 z m 552.33591,4.69141 -4.56641,25.89844 h -24.25586 c -2.51495,14.26053 -5.02781,28.52149 -7.54687,42.78125 -0.7147,3.55546 0.97596,8.09095 2.42773,8.16015 2.57464,0.53519 4.95543,0.2212 7.24219,-0.51367 l 7.24219,-41.0625 h 24.25586 l 6.21875,-35.26367 z m -96.43164,10.31055 c 0.95755,1.4517 1.84979,2.95841 2.58398,4.59179 1.06485,2.36911 1.90219,4.86868 2.63868,7.42774 l 1.13867,-6.45703 c -1.87267,-2.08066 -3.97819,-3.95161 -6.36133,-5.5625 z m 6.19141,15.58789 c 2.52452,11.3407 2.13913,24.39539 -0.72266,39.05664 l -1.20508,6.17968 h -7.63086 l -1.65234,9.36524 h 1.08008 l -1.18946,0.62305 -4.50976,25.57421 c -6.63054,3.36085 -12.51669,6.31144 -22.53907,8.60352 h -0.002 c -6.78679,1.55204 -14.08002,2.30264 -21.86914,2.30664 h -0.0273 -0.0274 c -14.44224,-0.095 -26.79905,-3.32779 -36.12109,-10.04297 0.57134,0.79941 1.13873,1.60101 1.77148,2.36133 9.60795,11.54481 24.92147,16.92321 43.71485,17.04688 h 0.0273 0.0273 c 7.79035,-0.003 15.08308,-0.75474 21.86914,-2.30665 h 0.002 c 6.72819,-1.53869 13.12118,-3.83234 19.12891,-6.875 l 3.41015,-1.72851 6.27149,-35.5625 h 7.63086 l 1.20507,-6.17969 c 2.86171,-14.66122 3.24716,-27.71593 0.72266,-39.05664 h 7.56445 l 1.65235,-9.36523 h -9.16407 l -1.02148,5.79687 c -0.57475,-1.9971 -1.30079,-3.90596 -2.05859,-5.79687 z m -48.89063,1.83007 c -6.06303,0.14762 -10.05164,1.78612 -13.35937,4.9375 -1.38025,1.31507 -2.5575,2.81546 -3.63282,4.42579 h 27.37696 c -0.27791,-2.32079 -0.88825,-4.27941 -1.8086,-5.92774 -1.12512,-2.0142 -2.79981,-3.25206 -8.57617,-3.43555 z m -148.39845,3.51954 -14.7949,83.90429 h -31.8223 l -1.6504,9.36524 h 42.8379 l 12.6485,-71.73242 z m -46.6836,21.80859 c -6.8316,21.2922 -18.166,37.31023 -34.3711,46.68164 -18.844,10.89752 -40.3763,16.01706 -63.9883,15.42188 l 0.1934,0.002 h -37.0234 l -1.6524,9.36523 h 48.041 l -0.1933,-0.002 c 23.6119,0.59516 45.1442,-4.52439 63.9883,-15.42188 6.8073,-3.93669 12.7046,-9.11226 17.8203,-15.29296 z m 129.71682,15.91602 -8.14258,46.17968 h -40.54297 l 3.13867,9.36524 h 46.76953 l 5.20117,-29.49805 c -4.31413,-7.40987 -6.3811,-16.20833 -6.42382,-26.04687 z m 41.32421,2.1621 c 0.52333,2.83728 1.5873,4.93294 3.20118,6.55469 v 0.002 c 1.58962,1.59741 3.68676,2.7977 6.41406,3.59765 -0.0675,-0.28358 -0.19659,-0.48924 -0.25195,-0.78906 h 21.56836 c 1.08566,-0.28541 2.16914,-0.57895 3.23828,-0.93164 6.65608,-2.25512 13.10587,-5.0459 19.26562,-8.4336 z m 161.09766,5.58204 -11.57617,6.57226 -3.60547,26.00391 -4.85742,1.33203 c -3.36791,0.92399 -6.90027,1.60232 -10.5957,2.05078 -3.72433,0.4523 -7.72807,0.66797 -12.03516,0.66797 h -0.043 -0.041 c -8.12275,-0.09 -15.4804,-1.86808 -21.38281,-5.48242 0.54362,0.89716 1.10445,1.78394 1.74805,2.625 6.33684,8.28135 16.85146,12.08802 28.99805,12.22265 h 0.041 0.043 c 4.30725,0 8.31297,-0.21592 12.03711,-0.66797 3.69525,-0.44854 7.22791,-1.1269 10.5957,-2.05078 l 4.85742,-1.33203 z"
       style="-inkscape-font-specification:'Frutiger LT 65 Bold, Oblique';display:inline;opacity:0.3;fill:#000000;fill-opacity:1"
       id="path190" /><path
       d="m -1048.2148,724 -11.2071,63.55859 c 0.3768,-12.37703 -1.4715,-23.1425 -6.332,-31.98632 -6.5546,-11.92536 -17.0041,-20.59592 -30.1934,-25.23438 -12.6386,-4.4443 -26.761,-6.5016 -42.2656,-6.32617 l 0.086,-0.002 h -45.3457 l -27.7851,157.56445 h 48.041 l -0.1934,-0.002 c 23.612,0.59518 45.1443,-4.52436 63.9883,-15.42188 16.2051,-9.37141 27.5395,-25.38944 34.3711,-46.68164 L -1076,881.56445 h 42.8379 l 14.7949,-83.90429 28.12111,83.90429 h 46.76953 l 8.14258,-46.17968 c 0.0539,12.41199 3.27021,23.20577 10.24609,31.58789 9.60786,11.54481 24.92144,16.92324 43.71484,17.04687 h 0.0274 0.0273 c 7.78912,-0.004 15.08235,-0.7546 21.86914,-2.30664 h 0.002 c 10.02238,-2.29208 15.90853,-5.24267 22.53907,-8.60352 l 6.27148,-35.5625 h 7.63086 l 1.20508,-6.17968 c 2.86179,-14.66125 3.24717,-27.71594 0.72266,-39.05664 h 18.58203 l -7.83985,44.44922 -0.002,0.0156 c -2.03276,11.8249 -0.53891,22.64138 5.67187,30.75781 6.33751,8.28208 16.85347,12.08802 29,12.22266 h 0.041 0.043 c 4.30709,0 8.31083,-0.21567 12.03516,-0.66797 3.69543,-0.44846 7.22779,-1.12679 10.5957,-2.05078 l 4.85742,-1.33203 5.81641,-41.94141 c -7.31005,4.2283 -13.89707,11.27698 -22.50196,9.48828 -1.45177,-0.0692 -3.14243,-4.60469 -2.42773,-8.16015 2.51906,-14.25976 5.03192,-28.52072 7.54687,-42.78125 h 24.25586 l 6.21875,-35.26368 h -24.25586 l 5.82813,-33.04492 -45.26172,13.74414 -3.4043,19.30078 h -20.17968 l -5.58789,31.69532 c -0.73649,-2.55906 -1.57383,-5.05863 -2.63868,-7.42774 -6.63298,-14.75653 -22.64701,-22.07081 -43.23828,-22.44726 l -0.16601,-0.002 -0.16602,0.004 c -17.9609,0.45203 -33.47163,6.75162 -44.82031,18.71094 -7.6814,8.09469 -13.30729,17.72653 -17.08789,28.49414 L -915.69141,724 h -42.83593 l -14.7793,83.80273 L -1001.2324,724 Z m -272.3692,0.01 -27.7851,157.56445 h 48.041 l -0.1934,-0.002 c 23.6119,0.59518 45.1442,-4.52437 63.9883,-15.42188 19.871,-11.49151 32.542,-32.83657 38.3887,-61.84961 l 0.025,-0.13086 0.021,-0.13281 c 3.2436,-19.62576 2.1444,-35.88826 -4.7675,-48.46484 -6.5545,-11.9254 -17.004,-20.59592 -30.1934,-25.23438 -12.6384,-4.44433 -26.761,-6.5016 -42.2656,-6.32617 l 0.086,-0.002 z m 276.6192,5.4707 h 35.0605 l 35.44922,106.38281 h 0.40625 l 9.1543,-51.91406 c 0.004,-10e-4 0.008,-9.6e-4 0.0117,-0.002 l 9.60547,-54.4668 h 27.3125 l -25.08789,142.27539 h -34.85547 l -0.006,-0.0176 h -0.002 l -20.63088,-61.55859 -15.0234,-44.82422 h -0.4063 l -18.7636,106.40039 h -27.3145 v -0.0176 h -0.01 l 10.2695,-58.23633 c 0,7.5e-4 0.01,0.001 0.01,0.002 z m -272.3692,0.01 h 38.9317 c 14.7759,-0.16723 27.9911,1.79855 39.6445,5.89649 11.6532,4.09818 20.3289,11.33163 26.0293,21.70312 5.7002,10.37168 7.0087,24.88587 3.9258,43.53907 -3.2554,16.15416 -8.6175,29.23356 -15.9629,39.41992 -0.1544,0.21554 -0.2989,0.44531 -0.4551,0.6582 -0.9805,1.32739 -2.0127,2.57924 -3.0645,3.80274 -0.5466,0.64018 -1.0999,1.27097 -1.666,1.88281 -0.9273,0.99592 -1.8725,1.96615 -2.8515,2.88672 -0.8189,0.77431 -1.6719,1.49787 -2.5274,2.21875 -0.8666,0.72679 -1.7193,1.47383 -2.623,2.14648 -1.3414,1.00193 -2.7474,1.91043 -4.1719,2.79102 -0.4777,0.29501 -0.9115,0.65397 -1.3984,0.93554 -17.5722,10.16195 -37.5619,14.95933 -59.9688,14.39453 h -38.9316 v -0.0176 h -0.012 l 15.7285,-89.19141 c 0,-6.4e-4 0.01,-0.001 0.012,-0.002 z m 137.1113,0 h 38.9317 c 14.7759,-0.16723 27.991,1.79855 39.6445,5.89649 11.6532,4.09818 20.3309,11.33163 26.0313,21.70312 5.7002,10.37168 7.0086,24.88587 3.9257,43.53907 -1.1558,5.73555 -2.6332,11.00309 -4.3046,15.98632 -0.059,0.17715 -0.112,0.36286 -0.1719,0.53907 -0.8003,2.34751 -1.672,4.59077 -2.5879,6.76953 -0.1898,0.45283 -0.3756,0.91183 -0.5703,1.35742 -0.8632,1.96849 -1.7796,3.85935 -2.7403,5.68555 -0.3105,0.59261 -0.6265,1.17619 -0.9472,1.7539 -0.9215,1.65315 -1.8772,3.25669 -2.8828,4.78711 -0.4419,0.67514 -0.9052,1.31936 -1.3633,1.97071 -0.9681,1.37081 -1.9497,2.72131 -2.9902,3.98632 -0.5874,0.71682 -1.2137,1.37765 -1.8243,2.06055 -1.0039,1.11866 -2.0019,2.24593 -3.0683,3.27344 -0.7525,0.72732 -1.56,1.37505 -2.3438,2.05664 -1.0183,0.88317 -2.0131,1.8009 -3.084,2.60742 -1.0302,0.77739 -2.1355,1.44457 -3.2148,2.15039 -0.8822,0.5764 -1.7123,1.22885 -2.627,1.75781 -17.5722,10.16195 -37.5617,14.95933 -59.9687,14.39453 h -38.9336 v -0.0176 h -0.012 l 10.7305,-60.85352 c 0,-0.002 0.01,-0.004 0.014,-0.006 z m 419.7559,3.27735 -5.24804,29.75976 h 24.25586 l -3.52149,19.97657 h -24.25781 l -8.625,48.91992 c -0.93331,4.64228 -0.80091,8.64742 0.39844,12.01758 1.20454,3.36449 4.32982,5.12969 9.3789,5.29101 2.4807,-0.004 4.85093,-0.25193 7.11133,-0.74023 2.2603,-0.4884 4.20277,-1.19178 5.82617,-2.11328 l -0.002,0.0195 c 0.003,-0.002 0.007,-0.002 0.01,-0.004 l -2.99415,21.60742 c -2.972,0.8153 -6.13749,1.42629 -9.49609,1.83399 -3.3588,0.4078 -7.06403,0.61133 -11.11523,0.61133 -0.14157,-0.002 -0.25403,-0.0306 -0.39453,-0.0332 -2.38169,-0.0431 -4.60954,-0.23742 -6.68555,-0.57617 -7.08112,-1.15904 -12.41032,-4.01152 -15.93164,-8.61328 -0.58064,-0.7588 -1.10892,-1.55497 -1.58789,-2.38477 -0.47329,-0.81831 -0.89719,-1.67115 -1.27149,-2.55859 -7.8e-4,-0.002 -10e-4,-0.004 -0.002,-0.006 -2.2613,-5.36544 -2.71408,-11.99298 -1.35742,-19.88477 l 7.89258,-44.75781 c 0.004,-0.002 0.008,-0.004 0.0117,-0.006 l 1.52149,-8.62304 h -20.17969 l 3.52149,-19.97657 h 20.17968 l 3.70313,-20.99414 z m -532.2852,19.14453 -17.1796,97.41601 h 15.8906 c 12.4035,-0.0934 23.9472,-4.34063 34.6308,-12.74023 1.7484,-1.3746 3.3755,-2.86694 4.92,-4.4375 0.223,-0.22579 0.4373,-0.45966 0.6562,-0.68945 4.7124,-4.97129 8.47,-10.8595 11.2598,-17.67969 0.01,0.001 0.011,8.7e-4 0.016,0.002 1.6627,-4.06746 3.0236,-8.42523 3.9981,-13.15429 2.2852,-15.58468 -0.4334,-27.57683 -8.1543,-35.97657 -7.7211,-8.39955 -17.7663,-12.64683 -30.1368,-12.74023 z m 137.1114,0 -17.1797,97.41601 h 15.8906 c 12.4036,-0.0934 23.9474,-4.34063 34.6309,-12.74023 10.6834,-8.3996 17.6306,-20.39166 20.8418,-35.97656 0.6177,-4.2126 0.8379,-8.14053 0.7246,-11.82813 0,10e-4 0,0.003 0.01,0.004 -0.3086,-9.94842 -3.2457,-18.00839 -8.8769,-24.13477 -7.7212,-8.39955 -17.7661,-12.64683 -30.1367,-12.74023 z m 17.9375,9.80078 c 9.1524,0.57342 17.6051,3.16885 24.6367,10.27539 5.8396,6.35301 8.2492,15.443 6.2344,29.47266 -2.9447,14.08863 -8.9003,24.12749 -18.0215,31.29883 -10.4866,9.16281 -23.4004,11.10351 -36.6953,11.10351 l 14.4863,-82.14258 c 3.1794,-0.16629 6.3086,-0.19895 9.3594,-0.008 z m -146.4707,0.008 h 9.4258 c 10.6532,0.0807 18.2165,3.35563 24.5703,10.26758 5.8391,6.35253 8.2472,15.44236 6.2324,29.47266 -2.9449,14.08923 -8.8988,24.12776 -18.0195,31.29883 -10.4867,9.16214 -23.4006,11.10351 -36.6954,11.10351 z m 412.94724,2.625 c 19.0522,0.34832 31.18765,6.32757 36.40625,17.9375 5.2184,11.61012 6.00221,26.76193 2.35351,45.45508 h -72.56445 c -0.57967,6.37108 0.33204,11.63365 2.73047,15.78906 0,0 0.002,0.002 0.002,0.002 0.80155,1.38505 1.76744,2.64667 2.90039,3.78515 4.5344,4.5566 11.08479,6.8573 19.65039,6.9043 6.6267,-0.0849 13.00326,-1.1369 19.13086,-3.1582 6.1274,-2.0214 11.99245,-4.50281 17.59375,-7.44141 l -0.004,0.0234 c 0.004,-0.002 0.008,-0.004 0.0117,-0.006 l -3.91797,22.21875 c -5.4418,2.75598 -11.23662,4.8366 -17.38282,6.24219 -6.1464,1.40558 -12.86942,2.11123 -20.16992,2.11523 -17.4246,-0.11467 -30.05357,-4.88033 -37.88867,-14.29492 -1.96094,-2.35624 -3.58491,-4.96 -4.87109,-7.8125 -0.6417,-1.42112 -1.19779,-2.90483 -1.67188,-4.44922 -2.37746,-7.7448 -2.64871,-17.0394 -0.81055,-27.88477 0.038,-0.21643 0.10314,-0.41346 0.14258,-0.6289 0.43016,-2.34856 0.96368,-4.62408 1.5586,-6.85547 0.1948,-0.72943 0.39493,-1.45503 0.60742,-2.17188 0.69987,-2.36581 1.46387,-4.6846 2.35547,-6.91406 0.10433,-0.26033 0.23094,-0.50519 0.33789,-0.76367 0.86414,-2.09277 1.82972,-4.11312 2.86523,-6.08398 0.26168,-0.49736 0.52041,-0.99672 0.79297,-1.48633 1.18329,-2.12803 2.44842,-4.19834 3.83789,-6.17969 0.0374,-0.0533 0.066,-0.11282 0.10352,-0.16602 0.005,0.003 0.0103,0.005 0.0156,0.008 1.94409,-2.75549 4.07157,-5.38095 6.41602,-7.85157 9.9413,-10.47607 23.09795,-15.91998 39.46875,-16.33203 z m -1.89258,19.97657 c -7.6489,0.14871 -13.86408,2.5002 -18.64648,7.05664 -3.16346,3.01396 -5.62448,6.6584 -7.50782,10.82031 -0.39542,0.86858 -0.76668,1.75897 -1.11718,2.66797 -0.48737,1.32781 -0.95727,2.66924 -1.32813,4.10156 h 13.01172 c 0.0123,0.006 0.0268,0.01 0.0391,0.0156 H -854.25 c 0.8763,-6.82414 -4.6e-4,-12.58934 -2.63086,-17.29882 -2.6305,-4.70932 -7.71058,-7.16355 -15.23828,-7.36328 z m 2.15039,9.81835 c 5.77636,0.18349 7.45105,1.42135 8.57617,3.43555 0.92035,1.64833 1.53069,3.60695 1.8086,5.92774 h -27.37696 c 1.07532,-1.61033 2.25257,-3.11072 3.63282,-4.42579 3.30773,-3.15138 7.29634,-4.78988 13.35937,-4.9375 z m -24.04102,43.40625 h 53.43555 c -6.15975,3.3877 -12.60954,6.17848 -19.26562,8.4336 -5.35999,1.76815 -10.91765,2.69025 -16.77344,2.77148 -7.16535,-0.0527 -11.35947,-1.7987 -14.19531,-4.64843 v -0.002 c -1.61388,-1.62175 -2.67785,-3.71741 -3.20118,-6.55469 z"
       style="-inkscape-font-specification:'Frutiger LT 65 Bold, Oblique';baseline-shift:baseline;display:inline;overflow:visible;vector-effect:none;enable-background:accumulate;stop-color:#000000;stop-opacity:1"
       id="path189" /><path
       d="m -1043.9648,729.48047 -14.8165,84.02344 c 6.4792,1.51331 13.453,2.27929 20.4336,2.27929 2.1749,0 4.3483,-0.0875 6.5079,-0.23437 l -9.9082,56.18945 h -27.3028 v 0.0176 h 27.3145 l 18.7636,-106.40039 h 0.4063 l 15.0234,44.82422 c 6.1766,-2.5422 11.49491,-5.91077 15.24221,-10.19727 1.4992,-1.7149 3.31803,-3.32435 5.26563,-4.87695 l 13.58203,40.75781 h 0.002 l -35.44917,-106.38281 z m 89.68746,0 -9.60547,54.4668 c 5.67308,-1.49033 11.6311,-2.39844 17.62109,-2.39844 3.3441,0 6.66803,0.34263 9.95703,0.83203 l -15.75586,89.35742 h -34.85351 l 0.006,0.0176 h 34.85547 l 25.08789,-142.27539 z m -362.05666,0.01 -9.3574,53.06446 c 3.6523,-0.60413 7.361,-1.00586 11.0898,-1.00586 5.8454,0 11.6581,0.86967 17.209,2.29297 l -11.5488,65.48632 h 0.01 l 17.1796,-97.41601 h 15.9004 c 12.3705,0.0934 22.4157,4.34068 30.1368,12.74023 7.7209,8.39974 10.4395,20.39189 8.1543,35.97657 -0.9745,4.72906 -2.3354,9.08683 -3.9981,13.15429 6.0859,1.3076 12.5543,2 19.043,2 3.6584,0 7.2965,-0.26799 10.8828,-0.68359 -3.1042,9.68783 -7.1536,17.99667 -12.1328,24.94922 7.3454,-10.18636 12.7075,-23.26576 15.9629,-39.41992 3.0829,-18.6532 1.7744,-33.16739 -3.9258,-43.53907 -5.7004,-10.37149 -14.3761,-17.60494 -26.0293,-21.70312 -11.6534,-4.09794 -24.8686,-6.06372 -39.6445,-5.89649 z m 137.1113,0 -14.3535,81.39844 c 6.9727,-2.60358 12.9859,-6.19845 17.1016,-10.90625 3.7624,-4.3037 9.1115,-8.1222 15.3203,-11.1875 l -10.6738,60.5332 h 0.01 l 17.1797,-97.41601 h 15.9004 c 12.3706,0.0934 22.4155,4.34068 30.1367,12.74023 5.6312,6.12638 8.5683,14.18635 8.8769,24.13477 6.2161,3.06657 11.5721,6.88769 15.3379,11.19531 3.0231,3.458 7.1069,6.29048 11.7891,8.61328 -0.7265,2.77808 -1.5313,5.44101 -2.3945,8.01953 1.6714,-4.98323 3.1488,-10.25077 4.3046,-15.98632 3.0829,-18.6532 1.7745,-33.16739 -3.9257,-43.53907 -5.7004,-10.37149 -14.3781,-17.60494 -26.0313,-21.70312 -11.6535,-4.09794 -24.8686,-6.06372 -39.6445,-5.89649 z m 419.7559,3.27735 -28.85937,8.76562 -3.70313,20.99414 h -20.17968 l -3.52149,19.97657 h 20.17969 l -1.52149,8.62304 c 9.67708,-5.77733 22.29195,-9.57812 34.98047,-9.57812 3.5788,0 7.13724,0.3795 10.64844,0.9375 h -16.80078 l -8.62695,48.91992 c -0.934,4.6457 -0.80141,8.65359 0.40039,12.02539 10e-4,0.004 0.005,0.006 0.006,0.01 -1.19935,-3.37016 -1.33175,-7.3753 -0.39844,-12.01758 l 8.625,-48.91992 h 24.25781 l 3.52149,-19.97657 h -24.25586 z m -110.75976,31.57812 c -16.3708,0.41205 -29.52745,5.85596 -39.46875,16.33203 -2.34445,2.47062 -4.47193,5.09608 -6.41602,7.85157 6.4517,3.10756 12.01699,7.01989 15.89258,11.45312 0.6108,0.6986 1.36178,1.31265 2.05078,1.96485 -0.0377,0.0817 -0.0681,0.16993 -0.10547,0.25195 1.88334,-4.16191 4.34436,-7.80635 7.50782,-10.82031 4.7824,-4.55644 10.99758,-6.90793 18.64648,-7.05664 7.5277,0.19973 12.60778,2.65396 15.23828,7.36328 2.6304,4.70948 3.50716,10.47468 2.63086,17.29882 h -33.41797 c 9.46676,4.50141 21.45078,6.79883 33.49024,6.79883 8.5607,0 17.08285,-1.18894 24.71875,-3.46484 -0.3103,4.8458 -0.95233,9.95504 -2.01563,15.40234 h -72.56445 c -0.58035,6.37943 0.33284,11.64871 2.73828,15.80664 -2.39843,-4.15541 -3.31014,-9.41798 -2.73047,-15.78906 h 72.56445 c 3.6487,-18.69315 2.86489,-33.84496 -2.35351,-45.45508 -5.2186,-11.60993 -17.35405,-17.58918 -36.40625,-17.9375 z m -46.00391,24.3418 c -1.38947,1.98135 -2.6546,4.05166 -3.83789,6.17969 1.1844,-2.12759 2.44851,-4.19795 3.83789,-6.17969 z m -4.63086,7.66602 c -1.03551,1.97086 -2.00109,3.99121 -2.86523,6.08398 0.86545,-2.09156 1.82877,-4.11409 2.86523,-6.08398 z m -3.20312,6.84765 c -0.8916,2.22946 -1.6556,4.54825 -2.35547,6.91406 0.70095,-2.36469 1.4625,-4.68595 2.35547,-6.91406 z m 24.67383,1.66602 c -0.50669,1.31401 -0.97074,2.66624 -1.3418,4.10156 h 0.0137 c 0.37086,-1.43232 0.84076,-2.77375 1.32813,-4.10156 z m -27.63672,7.41992 c -0.59492,2.23139 -1.12844,4.50691 -1.5586,6.85547 0.43003,-2.34876 0.96281,-4.62461 1.5586,-6.85547 z m -148.13866,4.86719 c -0.7992,2.34872 -1.6738,4.58853 -2.5879,6.76953 0.9159,-2.17876 1.7876,-4.42202 2.5879,-6.76953 z m -3.1582,8.12695 c -0.8613,1.97081 -1.7818,3.85651 -2.7403,5.68555 0.9607,-1.8262 1.8771,-3.71706 2.7403,-5.68555 z m -174.5098,6.17969 c -0.2189,0.22979 -0.4332,0.46366 -0.6562,0.68945 0.2225,-0.22626 0.4379,-0.45915 0.6562,-0.68945 z m 170.8223,1.25976 c -0.9197,1.65636 -1.8791,3.2534 -2.8828,4.78711 1.0056,-1.53042 1.9613,-3.13396 2.8828,-4.78711 z m -4.2461,6.75782 c -0.966,1.37331 -1.9517,2.7189 -2.9902,3.98632 1.0405,-1.26501 2.0221,-2.61551 2.9902,-3.98632 z m -137.9629,1.22851 c -0.9771,1.33191 -2.016,2.57486 -3.0645,3.80274 1.0518,-1.2235 2.084,-2.47535 3.0645,-3.80274 z m 382.20508,2.92969 c -0.004,0.002 -0.008,0.004 -0.0117,0.006 l -3.91407,22.19531 c -5.4418,2.756 -11.23661,4.83659 -17.38281,6.24219 -6.1464,1.4055 -12.86942,2.11523 -20.16992,2.11523 -17.4246,-0.1147 -30.05367,-4.88032 -37.88867,-14.29492 -1.95693,-2.35141 -3.57835,-4.94926 -4.86328,-7.79492 1.28618,2.8525 2.91015,5.45626 4.87109,7.8125 7.8351,9.41459 20.46407,14.18025 37.88867,14.29492 7.3005,-0.004 14.02352,-0.70965 20.16992,-2.11523 6.1462,-1.40559 11.94102,-3.48621 17.38282,-6.24219 z m -249.05668,1.88867 c -1.0025,1.12122 -2.0031,2.24375 -3.0683,3.27344 1.0664,-1.02751 2.0644,-2.15478 3.0683,-3.27344 z m 336.93168,0.36914 c -0.003,0.002 -0.007,0.002 -0.01,0.004 l -2.99219,21.58593 c -2.972,0.81531 -6.13749,1.42629 -9.49609,1.83399 -3.3588,0.4078 -7.06404,0.61328 -11.11524,0.61328 -0.13367,-10e-4 -0.25399,-0.0152 -0.38671,-0.0176 0.1405,0.003 0.25296,0.0316 0.39453,0.0332 4.0512,0 7.75643,-0.20353 11.11523,-0.61133 3.3586,-0.4077 6.52409,-1.01869 9.49609,-1.83399 z m -474.81058,0.49805 c -0.9251,0.99995 -1.8744,1.96267 -2.8515,2.88672 0.979,-0.92057 1.9242,-1.8908 2.8515,-2.88672 z m 132.4668,4.46289 c -1.0171,0.88452 -2.014,1.8 -3.084,2.60742 1.0709,-0.80652 2.0657,-1.72425 3.084,-2.60742 z m -137.8457,0.64258 c -0.865,0.72899 -1.7204,1.47227 -2.623,2.14648 0.9037,-0.67265 1.7564,-1.41969 2.623,-2.14648 z m 131.5469,4.11523 c -0.8811,0.57619 -1.721,1.21179 -2.6348,1.74024 -17.5722,10.162 -37.5617,14.95933 -59.9687,14.39453 h -38.9219 v 0.0176 h 38.9336 c 22.407,0.5648 42.3965,-4.23258 59.9687,-14.39453 0.9147,-0.52896 1.7448,-1.18141 2.627,-1.75781 z m -138.3418,0.82227 c -0.4765,0.29456 -0.9204,0.63702 -1.4063,0.91797 -17.5721,10.162 -37.5618,14.95933 -59.9687,14.39453 h -38.9199 v 0.0176 h 38.9316 c 22.4069,0.5648 42.3966,-4.23258 59.9688,-14.39453 0.4869,-0.28157 0.9207,-0.64053 1.3984,-0.93554 z m 438.7793,1.90429 c 0.47897,0.8298 1.00725,1.62597 1.58789,2.38477 3.52132,4.60176 8.85052,7.45424 15.93164,8.61328 -7.09216,-1.15724 -12.41448,-4.0244 -15.93945,-8.63086 -0.57679,-0.75376 -1.10362,-1.54337 -1.58008,-2.36719 z"
       style="font-style:oblique;font-size:51.7442px;line-height:80%;font-family:'Frutiger LT 65 Bold';-inkscape-font-specification:'Frutiger LT 65 Bold, Oblique';letter-spacing:-2.58721px;word-spacing:0px;baseline-shift:baseline;display:inline;overflow:visible;vector-effect:none;fill:#ffa500;enable-background:accumulate;stop-color:#000000;stop-opacity:1"
       id="path187" /><path
       d="m -1314.6016,781.54883 c -3.7328,0 -7.4454,0.40261 -11.1015,1.00781 l -15.7285,89.19141 h 38.9316 c 22.4069,0.5648 42.3966,-4.23253 59.9687,-14.39453 14.2887,-8.2632 24.5422,-22.41651 30.8985,-42.25391 -3.5863,0.4156 -7.2244,0.68359 -10.8828,0.68359 -6.4941,0 -12.9683,-0.69225 -19.0586,-2.00195 -3.8161,9.3293 -9.3989,16.95934 -16.836,22.80664 -10.6836,8.3996 -22.2273,12.64684 -34.6308,12.74023 h -15.9004 l 11.5488,-65.48632 c -5.5509,-1.4233 -11.3636,-2.29297 -17.209,-2.29297 z m 368.33988,0 c -5.994,0 -11.95631,0.90829 -17.63281,2.40039 l -9.1543,51.91406 h -0.4082 l -13.58203,-40.75781 c -1.9476,1.5526 -3.76643,3.16205 -5.26563,4.87695 -3.7473,4.2865 -9.06561,7.65507 -15.24221,10.19727 l 20.63088,61.55859 h 34.85547 l 15.75586,-89.35742 c -3.289,-0.4894 -6.61293,-0.83203 -9.95703,-0.83203 z m 184.16992,0 c -12.6933,0 -25.31368,3.80298 -34.99218,9.58398 l -7.89258,44.75781 c -1.8075,10.51441 -0.40337,18.78631 4.21094,24.81641 4.61429,6.03 12.28471,9.10551 23.01171,9.22461 4.0512,0 7.75644,-0.20548 11.11524,-0.61328 3.3586,-0.4077 6.52409,-1.01868 9.49609,-1.83399 l 2.99414,-21.60546 c -1.6234,0.9215 -3.56587,1.62488 -5.82617,2.11328 -2.2604,0.4883 -4.63063,0.73593 -7.11133,0.74023 -5.0547,-0.1615 -8.18316,-1.92898 -9.38476,-5.30078 -1.2018,-3.3718 -1.33439,-7.37969 -0.40039,-12.02539 l 8.62695,-48.91992 h 16.80078 c -3.5112,-0.558 -7.06964,-0.9375 -10.64844,-0.9375 z m -154.03515,6.97265 c -6.2954,8.9263 -10.50707,19.3353 -12.60157,31.25 -2.9387,17.3386 -0.48939,30.71441 7.34571,40.12891 7.835,9.4146 20.46407,14.18022 37.88867,14.29492 7.3005,0 14.02352,-0.70973 20.16992,-2.11523 6.1462,-1.4056 11.94101,-3.48619 17.38281,-6.24219 l 3.91797,-22.21875 c -5.6013,2.9386 -11.46635,5.42001 -17.59375,7.44141 -6.1276,2.0213 -12.50416,3.0733 -19.13086,3.1582 -8.5656,-0.047 -15.11599,-2.3477 -19.65039,-6.9043 -4.5344,-4.5565 -6.41442,-11.08785 -5.64062,-19.59375 h 72.56445 c 1.0633,-5.4473 1.70533,-10.55654 2.01563,-15.40234 -7.6359,2.2759 -16.15805,3.46484 -24.71875,3.46484 -12.0551,0 -24.0568,-2.30145 -33.5293,-6.81445 h -13.02539 c 0.652,-2.522 1.55145,-4.82308 2.56445,-7.02148 -0.689,-0.6522 -1.43998,-1.26625 -2.05078,-1.96485 -3.8788,-4.4369 -9.4497,-8.35214 -15.9082,-11.46094 z m -183.60545,0.26172 c 0.1133,3.6876 -0.1069,7.61553 -0.7246,11.82813 -3.2112,15.5849 -10.1584,27.57696 -20.8418,35.97656 -10.6835,8.3996 -22.2273,12.64683 -34.6309,12.74023 h -15.8984 l 10.6738,-60.5332 c -6.2088,3.0653 -11.5579,6.8838 -15.3203,11.1875 -4.1185,4.711 -10.1365,8.30811 -17.1152,10.91211 l -10.7305,60.85352 h 38.9336 c 22.407,0.5648 42.3965,-4.23253 59.9687,-14.39453 15.812,-9.1441 26.7203,-25.44032 32.8184,-48.75782 -4.6822,-2.3228 -8.766,-5.15528 -11.7891,-8.61328 -3.7671,-4.3091 -9.1249,-8.13212 -15.3437,-11.19922 z m 40.9414,24.71875 -10.2695,58.23633 h 27.3125 l 9.9082,-56.18945 c -2.1596,0.1469 -4.333,0.23437 -6.5079,0.23437 -6.9841,0 -13.9614,-0.76645 -20.4433,-2.28125 z"
       style="baseline-shift:baseline;display:inline;overflow:visible;vector-effect:none;fill:#f37601;stroke-linecap:square;stroke-miterlimit:11.3;enable-background:accumulate;stop-color:#000000;stop-opacity:1"
       id="path186" /></g><text
     xml:space="preserve"
     id="text196"
     style="font-style:normal;font-variant:normal;font-weight:normal;font-stretch:normal;line-height:0%;font-family:sans-serif;-inkscape-font-specification:'sans-serif, Normal';font-variant-ligatures:normal;font-variant-caps:normal;font-variant-numeric:normal;font-variant-east-asian:normal;text-align:start;letter-spacing:0px;writing-mode:lr-tb;direction:ltr;white-space:pre;shape-inside:url(#rect197);opacity:0;fill:#000000;fill-opacity:1;stroke:#000000;stroke-width:15;stroke-linecap:square;stroke-linejoin:miter;stroke-miterlimit:11.3;stroke-dasharray:none;stroke-opacity:1;paint-order:normal"
     transform="translate(983,148)"><tspan
       x="-299.8125"
       y="247.70868"
       id="tspan2"><tspan
         style="font-size:26.6667px;line-height:1.25;stroke:none"
         id="tspan1">Made by SollyBunny</tspan></tspan></text></svg>
